  0
SECTION
  2
HEADER
  9
$ACADVER
  1
AC1021
  9
$ACADMAINTVER
 70
    50
  9
$DWGCODEPAGE
  3
ANSI_1252
  9
$LASTSAVEDBY
  1
Paulo
  9
$INSBASE
 10
0.0
 20
0.0
 30
0.0
  9
$EXTMIN
 10
-0.0000000000000568
 20
0.0
 30
0.0
  9
$EXTMAX
 10
500.0000000000002
 20
500.0
 30
260.0
  9
$LIMMIN
 10
0.0
 20
0.0
  9
$LIMMAX
 10
420.0
 20
297.0
  9
$ORTHOMODE
 70
     0
  9
$REGENMODE
 70
     1
  9
$FILLMODE
 70
     1
  9
$QTEXTMODE
 70
     0
  9
$MIRRTEXT
 70
     0
  9
$LTSCALE
 40
1.0
  9
$ATTMODE
 70
     1
  9
$TEXTSIZE
 40
2.5
  9
$TRACEWID
 40
1.0
  9
$TEXTSTYLE
  7
Standard
  9
$CLAYER
  8
grupo1
  9
$CELTYPE
  6
ByLayer
  9
$CECOLOR
 62
   256
  9
$CELTSCALE
 40
1.0
  9
$DISPSILH
 70
     0
  9
$DIMSCALE
 40
1.0
  9
$DIMASZ
 40
2.5
  9
$DIMEXO
 40
0.625
  9
$DIMDLI
 40
3.75
  9
$DIMRND
 40
0.0
  9
$DIMDLE
 40
0.0
  9
$DIMEXE
 40
1.25
  9
$DIMTP
 40
0.0
  9
$DIMTM
 40
0.0
  9
$DIMTXT
 40
2.5
  9
$DIMCEN
 40
2.5
  9
$DIMTSZ
 40
0.0
  9
$DIMTOL
 70
     0
  9
$DIMLIM
 70
     0
  9
$DIMTIH
 70
     0
  9
$DIMTOH
 70
     0
  9
$DIMSE1
 70
     0
  9
$DIMSE2
 70
     0
  9
$DIMTAD
 70
     1
  9
$DIMZIN
 70
     8
  9
$DIMBLK
  1

  9
$DIMASO
 70
     1
  9
$DIMSHO
 70
     1
  9
$DIMPOST
  1

  9
$DIMAPOST
  1

  9
$DIMALT
 70
     0
  9
$DIMALTD
 70
     3
  9
$DIMALTF
 40
0.03937007874016
  9
$DIMLFAC
 40
1.0
  9
$DIMTOFL
 70
     1
  9
$DIMTVP
 40
0.0
  9
$DIMTIX
 70
     0
  9
$DIMSOXD
 70
     0
  9
$DIMSAH
 70
     0
  9
$DIMBLK1
  1

  9
$DIMBLK2
  1

  9
$DIMSTYLE
  2
ISO-25
  9
$DIMCLRD
 70
     0
  9
$DIMCLRE
 70
     0
  9
$DIMCLRT
 70
     0
  9
$DIMTFAC
 40
1.0
  9
$DIMGAP
 40
0.625
  9
$DIMJUST
 70
     0
  9
$DIMSD1
 70
     0
  9
$DIMSD2
 70
     0
  9
$DIMTOLJ
 70
     0
  9
$DIMTZIN
 70
     8
  9
$DIMALTZ
 70
     0
  9
$DIMALTTZ
 70
     0
  9
$DIMUPT
 70
     0
  9
$DIMDEC
 70
     2
  9
$DIMTDEC
 70
     2
  9
$DIMALTU
 70
     2
  9
$DIMALTTD
 70
     3
  9
$DIMTXSTY
  7
Standard
  9
$DIMAUNIT
 70
     0
  9
$DIMADEC
 70
     0
  9
$DIMALTRND
 40
0.0
  9
$DIMAZIN
 70
     0
  9
$DIMDSEP
 70
    44
  9
$DIMATFIT
 70
     3
  9
$DIMFRAC
 70
     0
  9
$DIMLDRBLK
  1

  9
$DIMLUNIT
 70
     2
  9
$DIMLWD
 70
    -2
  9
$DIMLWE
 70
    -2
  9
$DIMTMOVE
 70
     0
  9
$DIMFXL
 40
1.0
  9
$DIMFXLON
 70
     0
  9
$DIMJOGANG
 40
0.7853981633974483
  9
$DIMTFILL
 70
     0
  9
$DIMTFILLCLR
 70
     0
  9
$DIMARCSYM
 70
     0
  9
$DIMLTYPE
  6

  9
$DIMLTEX1
  6

  9
$DIMLTEX2
  6

  9
$LUNITS
 70
     2
  9
$LUPREC
 70
     4
  9
$SKETCHINC
 40
1.0
  9
$FILLETRAD
 40
0.0
  9
$AUNITS
 70
     0
  9
$AUPREC
 70
     0
  9
$MENU
  1
.
  9
$ELEVATION
 40
0.0
  9
$PELEVATION
 40
0.0
  9
$THICKNESS
 40
0.0
  9
$LIMCHECK
 70
     0
  9
$CHAMFERA
 40
0.0
  9
$CHAMFERB
 40
0.0
  9
$CHAMFERC
 40
0.0
  9
$CHAMFERD
 40
0.0
  9
$SKPOLY
 70
     0
  9
$TDCREATE
 40
2456462.619770151
  9
$TDUCREATE
 40
2456462.744770151
  9
$TDUPDATE
 40
2456508.881760741
  9
$TDUUPDATE
 40
2456509.006760741
  9
$TDINDWG
 40
0.0108995023
  9
$TDUSRTIMER
 40
0.0108995023
  9
$USRTIMER
 70
     1
  9
$ANGBASE
 50
0.0
  9
$ANGDIR
 70
     0
  9
$PDMODE
 70
     0
  9
$PDSIZE
 40
0.0
  9
$PLINEWID
 40
0.0
  9
$SPLFRAME
 70
     0
  9
$SPLINETYPE
 70
     6
  9
$SPLINESEGS
 70
     8
  9
$HANDSEED
  5
670
  9
$SURFTAB1
 70
     6
  9
$SURFTAB2
 70
     6
  9
$SURFTYPE
 70
     6
  9
$SURFU
 70
     6
  9
$SURFV
 70
     6
  9
$UCSBASE
  2

  9
$UCSNAME
  2

  9
$UCSORG
 10
0.0
 20
0.0
 30
0.0
  9
$UCSXDIR
 10
1.0
 20
0.0
 30
0.0
  9
$UCSYDIR
 10
0.0
 20
1.0
 30
0.0
  9
$UCSORTHOREF
  2

  9
$UCSORTHOVIEW
 70
     0
  9
$UCSORGTOP
 10
0.0
 20
0.0
 30
0.0
  9
$UCSORGBOTTOM
 10
0.0
 20
0.0
 30
0.0
  9
$UCSORGLEFT
 10
0.0
 20
0.0
 30
0.0
  9
$UCSORGRIGHT
 10
0.0
 20
0.0
 30
0.0
  9
$UCSORGFRONT
 10
0.0
 20
0.0
 30
0.0
  9
$UCSORGBACK
 10
0.0
 20
0.0
 30
0.0
  9
$PUCSBASE
  2

  9
$PUCSNAME
  2

  9
$PUCSORG
 10
0.0
 20
0.0
 30
0.0
  9
$PUCSXDIR
 10
1.0
 20
0.0
 30
0.0
  9
$PUCSYDIR
 10
0.0
 20
1.0
 30
0.0
  9
$PUCSORTHOREF
  2

  9
$PUCSORTHOVIEW
 70
     0
  9
$PUCSORGTOP
 10
0.0
 20
0.0
 30
0.0
  9
$PUCSORGBOTTOM
 10
0.0
 20
0.0
 30
0.0
  9
$PUCSORGLEFT
 10
0.0
 20
0.0
 30
0.0
  9
$PUCSORGRIGHT
 10
0.0
 20
0.0
 30
0.0
  9
$PUCSORGFRONT
 10
0.0
 20
0.0
 30
0.0
  9
$PUCSORGBACK
 10
0.0
 20
0.0
 30
0.0
  9
$USERI1
 70
     0
  9
$USERI2
 70
     0
  9
$USERI3
 70
     0
  9
$USERI4
 70
     0
  9
$USERI5
 70
     0
  9
$USERR1
 40
0.0
  9
$USERR2
 40
0.0
  9
$USERR3
 40
0.0
  9
$USERR4
 40
0.0
  9
$USERR5
 40
0.0
  9
$WORLDVIEW
 70
     1
  9
$SHADEDGE
 70
     3
  9
$SHADEDIF
 70
    70
  9
$TILEMODE
 70
     1
  9
$MAXACTVP
 70
    64
  9
$PINSBASE
 10
0.0
 20
0.0
 30
0.0
  9
$PLIMCHECK
 70
     0
  9
$PEXTMIN
 10
1.000000000000000E+20
 20
1.000000000000000E+20
 30
1.000000000000000E+20
  9
$PEXTMAX
 10
-1.000000000000000E+20
 20
-1.000000000000000E+20
 30
-1.000000000000000E+20
  9
$PLIMMIN
 10
0.0
 20
0.0
  9
$PLIMMAX
 10
12.0
 20
9.0
  9
$UNITMODE
 70
     0
  9
$VISRETAIN
 70
     1
  9
$PLINEGEN
 70
     0
  9
$PSLTSCALE
 70
     1
  9
$TREEDEPTH
 70
  3020
  9
$CMLSTYLE
  2
Standard
  9
$CMLJUST
 70
     0
  9
$CMLSCALE
 40
20.0
  9
$PROXYGRAPHICS
 70
     1
  9
$MEASUREMENT
 70
     1
  9
$CELWEIGHT
370
    -1
  9
$ENDCAPS
280
     0
  9
$JOINSTYLE
280
     0
  9
$LWDISPLAY
290
     0
  9
$INSUNITS
 70
     4
  9
$HYPERLINKBASE
  1

  9
$STYLESHEET
  1

  9
$XEDIT
290
     1
  9
$CEPSNTYPE
380
     0
  9
$PSTYLEMODE
290
     1
  9
$FINGERPRINTGUID
  2
{552F7250-43A9-45F1-AB55-47EE863EEEC1}
  9
$VERSIONGUID
  2
{EC41F22D-502B-4C52-9597-186B4157D7A2}
  9
$EXTNAMES
290
     1
  9
$PSVPSCALE
 40
0.0
  9
$OLESTARTUP
290
     0
  9
$SORTENTS
280
   127
  9
$INDEXCTL
280
     0
  9
$HIDETEXT
280
     1
  9
$XCLIPFRAME
290
     0
  9
$HALOGAP
280
     0
  9
$OBSCOLOR
 70
   257
  9
$OBSLTYPE
280
     0
  9
$INTERSECTIONDISPLAY
280
     0
  9
$INTERSECTIONCOLOR
 70
   257
  9
$DIMASSOC
280
     1
  9
$PROJECTNAME
  1

  9
$CAMERADISPLAY
290
     0
  9
$LENSLENGTH
 40
50.0
  9
$CAMERAHEIGHT
 40
0.0
  9
$STEPSPERSEC
 40
2.0
  9
$STEPSIZE
 40
6.0
  9
$3DDWFPREC
 40
2.0
  9
$PSOLWIDTH
 40
0.25
  9
$PSOLHEIGHT
 40
4.0
  9
$LOFTANG1
 40
1.570796326794896
  9
$LOFTANG2
 40
1.570796326794896
  9
$LOFTMAG1
 40
0.0
  9
$LOFTMAG2
 40
0.0
  9
$LOFTPARAM
 70
     7
  9
$LOFTNORMALS
280
     1
  9
$LATITUDE
 40
37.795
  9
$LONGITUDE
 40
-122.394
  9
$NORTHDIRECTION
 40
0.0
  9
$TIMEZONE
 70
 -8000
  9
$LIGHTGLYPHDISPLAY
280
     1
  9
$TILEMODELIGHTSYNCH
280
     1
  9
$CMATERIAL
347
631
  9
$SOLIDHIST
280
     1
  9
$SHOWHIST
280
     1
  9
$DWFFRAME
280
     2
  9
$DGNFRAME
280
     2
  9
$REALWORLDSCALE
290
     1
  9
$INTERFERECOLOR
 62
   256
  9
$INTERFEREOBJVS
345
653
  9
$INTERFEREVPVS
346
650
  9
$CSHADOW
280
     0
  9
$SHADOWPLANELOCATION
 40
0.0
  0
ENDSEC
  0
SECTION
  2
CLASSES
  0
CLASS
  1
ACDBDICTIONARYWDFLT
  2
AcDbDictionaryWithDefault
  3
ObjectDBX Classes
 90
        0
 91
        1
280
     0
281
     0
  0
CLASS
  1
DICTIONARYVAR
  2
AcDbDictionaryVar
  3
ObjectDBX Classes
 90
        0
 91
        9
280
     0
281
     0
  0
CLASS
  1
TABLESTYLE
  2
AcDbTableStyle
  3
ObjectDBX Classes
 90
     4095
 91
        1
280
     0
281
     0
  0
CLASS
  1
WIPEOUTVARIABLES
  2
AcDbWipeoutVariables
  3
"WipeOut|Product Desc:     WipeOut Dbx Application|Company:          Autodesk, Inc.|WEB Address:      www.autodesk.com"
 90
        0
 91
        1
280
     0
281
     0
  0
CLASS
  1
SCALE
  2
AcDbScale
  3
ObjectDBX Classes
 90
     1153
 91
       33
280
     0
281
     0
  0
CLASS
  1
MLEADERSTYLE
  2
AcDbMLeaderStyle
  3
ACDB_MLEADERSTYLE_CLASS
 90
     4095
 91
        1
280
     0
281
     0
  0
CLASS
  1
CELLSTYLEMAP
  2
AcDbCellStyleMap
  3
ObjectDBX Classes
 90
     1152
 91
        3
280
     0
281
     0
  0
CLASS
  1
MATERIAL
  2
AcDbMaterial
  3
ObjectDBX Classes
 90
     1153
 91
        3
280
     0
281
     0
  0
CLASS
  1
VISUALSTYLE
  2
AcDbVisualStyle
  3
ObjectDBX Classes
 90
     4095
 91
       16
280
     0
281
     0
  0
ENDSEC
  0
SECTION
  2
TABLES
  0
TABLE
  2
VPORT
  5
8
330
0
100
AcDbSymbolTable
 70
     1
  0
VPORT
  5
15E
330
8
100
AcDbSymbolTableRecord
100
AcDbViewportTableRecord
  2
*Active
 70
     0
 10
0.0
 20
0.0
 11
1.0
 21
1.0
 12
505.2924414099077
 22
143.728273938349
 13
0.0
 23
0.0
 14
10.0
 24
10.0
 15
10.0
 25
10.0
 16
1.0
 26
-1.0
 36
1.0
 17
0.0
 27
0.0
 37
0.0
 40
1175.97766603743
 41
2.351254480286738
 42
50.0
 43
0.0
 44
0.0
 50
0.0
 51
0.0
 71
    16
 72
  1000
 73
     1
 74
     3
 75
     0
 76
     0
 77
     0
 78
     0
281
     0
 65
     1
110
0.0
120
0.0
130
0.0
111
1.0
121
0.0
131
0.0
112
0.0
122
1.0
132
0.0
 79
     0
146
0.0
348
64F
 60
     3
 61
     5
292
     1
282
     1
141
0.0
142
0.0
  0
ENDTAB
  0
TABLE
  2
LTYPE
  5
5
330
0
100
AcDbSymbolTable
 70
     1
  0
LTYPE
  5
14
330
5
100
AcDbSymbolTableRecord
100
AcDbLinetypeTableRecord
  2
ByBlock
 70
     0
  3

 72
    65
 73
     0
 40
0.0
  0
LTYPE
  5
15
330
5
100
AcDbSymbolTableRecord
100
AcDbLinetypeTableRecord
  2
ByLayer
 70
     0
  3

 72
    65
 73
     0
 40
0.0
  0
LTYPE
  5
16
330
5
100
AcDbSymbolTableRecord
100
AcDbLinetypeTableRecord
  2
Continuous
 70
     0
  3
Solid line
 72
    65
 73
     0
 40
0.0
  0
ENDTAB
  0
TABLE
  2
LAYER
  5
2
330
0
100
AcDbSymbolTable
 70
     6
  0
LAYER
  5
10
102
{ACAD_XDICTIONARY
360
65E
102
}
330
2
100
AcDbSymbolTableRecord
100
AcDbLayerTableRecord
  2
0
 70
     0
 62
     7
  6
Continuous
370
    -3
390
F
347
641
  0
LAYER
  5
1E5
102
{ACAD_XDICTIONARY
360
660
102
}
330
2
100
AcDbSymbolTableRecord
100
AcDbLayerTableRecord
  2
grupo3
 70
     0
 62
     3
  6
Continuous
370
    -3
390
F
347
641
  0
LAYER
  5
1E9
102
{ACAD_XDICTIONARY
360
662
102
}
330
2
100
AcDbSymbolTableRecord
100
AcDbLayerTableRecord
  2
grupo1
 70
     0
 62
     1
  6
Continuous
370
    -3
390
F
347
641
  0
LAYER
  5
1EA
102
{ACAD_XDICTIONARY
360
664
102
}
330
2
100
AcDbSymbolTableRecord
100
AcDbLayerTableRecord
  2
grupo4
 70
     0
 62
     4
  6
Continuous
370
    -3
390
F
347
641
  0
LAYER
  5
1EF
102
{ACAD_XDICTIONARY
360
666
102
}
330
2
100
AcDbSymbolTableRecord
100
AcDbLayerTableRecord
  2
laje
 70
     0
 62
     7
  6
Continuous
370
    -3
390
F
347
641
  0
LAYER
  5
1F0
102
{ACAD_XDICTIONARY
360
668
102
}
330
2
100
AcDbSymbolTableRecord
100
AcDbLayerTableRecord
  2
grupo2
 70
     0
 62
     2
  6
Continuous
370
    -3
390
F
347
641
  0
ENDTAB
  0
TABLE
  2
STYLE
  5
3
330
0
100
AcDbSymbolTable
 70
     1
  0
STYLE
  5
11
330
3
100
AcDbSymbolTableRecord
100
AcDbTextStyleTableRecord
  2
Standard
 70
     0
 40
0.0
 41
1.0
 50
0.0
 71
     0
 42
2.5
  3
ISOCP.SHX
  4

  0
ENDTAB
  0
TABLE
  2
VIEW
  5
6
330
0
100
AcDbSymbolTable
 70
     0
  0
ENDTAB
  0
TABLE
  2
UCS
  5
7
330
0
100
AcDbSymbolTable
 70
     0
  0
ENDTAB
  0
TABLE
  2
APPID
  5
9
330
0
100
AcDbSymbolTable
 70
     4
  0
APPID
  5
12
330
9
100
AcDbSymbolTableRecord
100
AcDbRegAppTableRecord
  2
ACAD
 70
     0
  0
APPID
  5
146
330
9
100
AcDbSymbolTableRecord
100
AcDbRegAppTableRecord
  2
ACAD_PSEXT
 70
     0
  0
APPID
  5
147
330
9
100
AcDbSymbolTableRecord
100
AcDbRegAppTableRecord
  2
ACAD_DSTYLE_DIMTEXT_FILL
 70
     0
  0
APPID
  5
65A
330
9
100
AcDbSymbolTableRecord
100
AcDbRegAppTableRecord
  2
ACAD_MLEADERVER
 70
     0
  0
ENDTAB
  0
TABLE
  2
DIMSTYLE
  5
A
330
0
100
AcDbSymbolTable
 70
     2
100
AcDbDimStyleTable
 71
     0
  0
DIMSTYLE
105
27
330
A
100
AcDbSymbolTableRecord
100
AcDbDimStyleTableRecord
  2
Standard
 70
     0
340
11
  0
DIMSTYLE
105
149
330
A
100
AcDbSymbolTableRecord
100
AcDbDimStyleTableRecord
  2
ISO-25
 70
     0
 41
2.5
 42
0.625
 43
3.75
 44
1.25
 73
     0
 74
     0
 77
     1
 78
     8
140
2.5
141
2.5
143
0.03937007874016
147
0.625
171
     3
172
     1
271
     2
272
     2
274
     3
278
    44
283
     0
284
     8
340
11
  0
ENDTAB
  0
TABLE
  2
BLOCK_RECORD
  5
1
330
0
100
AcDbSymbolTable
 70
     1
  0
BLOCK_RECORD
  5
1F
330
1
100
AcDbSymbolTableRecord
100
AcDbBlockTableRecord
  2
*Model_Space
340
22
 70
     0
280
     1
281
     0
  0
BLOCK_RECORD
  5
13D
330
1
100
AcDbSymbolTableRecord
100
AcDbBlockTableRecord
  2
*Paper_Space
340
13E
 70
     0
280
     1
281
     0
  0
BLOCK_RECORD
  5
73
330
1
100
AcDbSymbolTableRecord
100
AcDbBlockTableRecord
  2
*Paper_Space0
340
74
 70
     0
280
     1
281
     0
  0
ENDTAB
  0
ENDSEC
  0
SECTION
  2
BLOCKS
  0
BLOCK
  5
20
330
1F
100
AcDbEntity
  8
0
100
AcDbBlockBegin
  2
*Model_Space
 70
     0
 10
0.0
 20
0.0
 30
0.0
  3
*Model_Space
  1

  0
ENDBLK
  5
21
330
1F
100
AcDbEntity
  8
0
100
AcDbBlockEnd
  0
BLOCK
  5
14A
330
13D
100
AcDbEntity
 67
     1
  8
0
100
AcDbBlockBegin
  2
*Paper_Space
 70
     0
 10
0.0
 20
0.0
 30
0.0
  3
*Paper_Space
  1

  0
ENDBLK
  5
14B
330
13D
100
AcDbEntity
 67
     1
  8
0
100
AcDbBlockEnd
  0
BLOCK
  5
75
330
73
100
AcDbEntity
 67
     1
  8
0
100
AcDbBlockBegin
  2
*Paper_Space0
 70
     0
 10
0.0
 20
0.0
 30
0.0
  3
*Paper_Space0
  1

  0
ENDBLK
  5
76
330
73
100
AcDbEntity
 67
     1
  8
0
100
AcDbBlockEnd
  0
ENDSEC
  0
SECTION
  2
ENTITIES
  0
LINE
  5
2DE
330
1F
100
AcDbEntity
  8
0
100
AcDbLine
 10
0.0
 20
0.0
 30
0.0
 11
0.0000000000000306
 21
500.0
 31
0.0
  0
LINE
  5
324
330
1F
100
AcDbEntity
  8
0
100
AcDbLine
 10
0.0000000000000306
 20
500.0
 30
0.0
 11
500.0
 21
500.0
 31
0.0
  0
LINE
  5
34F
330
1F
100
AcDbEntity
  8
0
100
AcDbLine
 10
500.0
 20
500.0
 30
0.0
 11
499.9999999999999
 21
0.0
 31
0.0
  0
LINE
  5
364
330
1F
100
AcDbEntity
  8
0
100
AcDbLine
 10
499.9999999999999
 20
0.0
 30
0.0
 11
0.0
 21
0.0
 31
0.0
  0
3DFACE
  5
3CD
330
1F
100
AcDbEntity
  8
grupo1
100
AcDbFace
 10
0.0
 20
0.0
 30
0.0
 11
0.0000000000000038
 21
62.5
 31
0.0
 12
0.0000000000000038
 22
62.5
 32
65.0
 13
0.0
 23
0.0
 33
65.0
  0
3DFACE
  5
3CE
330
1F
100
AcDbEntity
  8
grupo1
100
AcDbFace
 10
0.0000000000000038
 20
62.5
 30
0.0
 11
0.0000000000000077
 21
125.0
 31
0.0
 12
0.0000000000000077
 22
125.0
 32
65.0
 13
0.0000000000000038
 23
62.5
 33
65.0
  0
3DFACE
  5
3CF
330
1F
100
AcDbEntity
  8
grupo1
100
AcDbFace
 10
0.0000000000000077
 20
125.0
 30
0.0
 11
0.0000000000000115
 21
187.5
 31
0.0
 12
0.0000000000000115
 22
187.5
 32
65.0
 13
0.0000000000000077
 23
125.0
 33
65.0
  0
3DFACE
  5
3D0
330
1F
100
AcDbEntity
  8
grupo1
100
AcDbFace
 10
0.0000000000000115
 20
187.5
 30
0.0
 11
0.0000000000000153
 21
250.0
 31
0.0
 12
0.0000000000000153
 22
250.0
 32
65.0
 13
0.0000000000000115
 23
187.5
 33
65.0
  0
3DFACE
  5
3D1
330
1F
100
AcDbEntity
  8
grupo1
100
AcDbFace
 10
0.0000000000000153
 20
250.0
 30
0.0
 11
0.0000000000000191
 21
312.5
 31
0.0
 12
0.0000000000000191
 22
312.5
 32
65.0
 13
0.0000000000000153
 23
250.0
 33
65.0
  0
3DFACE
  5
3D2
330
1F
100
AcDbEntity
  8
grupo1
100
AcDbFace
 10
0.0000000000000191
 20
312.5
 30
0.0
 11
0.000000000000023
 21
375.0
 31
0.0
 12
0.000000000000023
 22
375.0
 32
65.0
 13
0.0000000000000191
 23
312.5
 33
65.0
  0
3DFACE
  5
3D3
330
1F
100
AcDbEntity
  8
grupo1
100
AcDbFace
 10
0.000000000000023
 20
375.0
 30
0.0
 11
0.0000000000000268
 21
437.5
 31
0.0
 12
0.0000000000000268
 22
437.5
 32
65.0
 13
0.000000000000023
 23
375.0
 33
65.0
  0
3DFACE
  5
3D4
330
1F
100
AcDbEntity
  8
grupo1
100
AcDbFace
 10
0.0000000000000268
 20
437.5
 30
0.0
 11
0.0000000000000306
 21
500.0
 31
0.0
 12
0.0000000000000306
 22
500.0
 32
65.0
 13
0.0000000000000268
 23
437.5
 33
65.0
  0
3DFACE
  5
3D5
330
1F
100
AcDbEntity
  8
grupo1
100
AcDbFace
 10
0.0
 20
0.0
 30
65.0
 11
0.0000000000000038
 21
62.5
 31
65.0
 12
0.0000000000000038
 22
62.5
 32
130.0
 13
0.0
 23
0.0
 33
130.0
  0
3DFACE
  5
3D6
330
1F
100
AcDbEntity
  8
grupo1
100
AcDbFace
 10
0.0000000000000038
 20
62.5
 30
65.0
 11
0.0000000000000077
 21
125.0
 31
65.0
 12
0.0000000000000077
 22
125.0
 32
130.0
 13
0.0000000000000038
 23
62.5
 33
130.0
  0
3DFACE
  5
3D7
330
1F
100
AcDbEntity
  8
grupo1
100
AcDbFace
 10
0.0000000000000077
 20
125.0
 30
65.0
 11
0.0000000000000115
 21
187.5
 31
65.0
 12
0.0000000000000115
 22
187.5
 32
130.0
 13
0.0000000000000077
 23
125.0
 33
130.0
  0
3DFACE
  5
3D8
330
1F
100
AcDbEntity
  8
grupo1
100
AcDbFace
 10
0.0000000000000115
 20
187.5
 30
65.0
 11
0.0000000000000153
 21
250.0
 31
65.0
 12
0.0000000000000153
 22
250.0
 32
130.0
 13
0.0000000000000115
 23
187.5
 33
130.0
  0
3DFACE
  5
3D9
330
1F
100
AcDbEntity
  8
grupo1
100
AcDbFace
 10
0.0000000000000153
 20
250.0
 30
65.0
 11
0.0000000000000191
 21
312.5
 31
65.0
 12
0.0000000000000191
 22
312.5
 32
130.0
 13
0.0000000000000153
 23
250.0
 33
130.0
  0
3DFACE
  5
3DA
330
1F
100
AcDbEntity
  8
grupo1
100
AcDbFace
 10
0.0000000000000191
 20
312.5
 30
65.0
 11
0.000000000000023
 21
375.0
 31
65.0
 12
0.000000000000023
 22
375.0
 32
130.0
 13
0.0000000000000191
 23
312.5
 33
130.0
  0
3DFACE
  5
3DB
330
1F
100
AcDbEntity
  8
grupo1
100
AcDbFace
 10
0.000000000000023
 20
375.0
 30
65.0
 11
0.0000000000000268
 21
437.5
 31
65.0
 12
0.0000000000000268
 22
437.5
 32
130.0
 13
0.000000000000023
 23
375.0
 33
130.0
  0
3DFACE
  5
3DC
330
1F
100
AcDbEntity
  8
grupo1
100
AcDbFace
 10
0.0000000000000268
 20
437.5
 30
65.0
 11
0.0000000000000306
 21
500.0
 31
65.0
 12
0.0000000000000306
 22
500.0
 32
130.0
 13
0.0000000000000268
 23
437.5
 33
130.0
  0
3DFACE
  5
3DD
330
1F
100
AcDbEntity
  8
grupo1
100
AcDbFace
 10
0.0
 20
0.0
 30
130.0
 11
0.0000000000000038
 21
62.5
 31
130.0
 12
0.0000000000000038
 22
62.5
 32
195.0
 13
0.0
 23
0.0
 33
195.0
  0
3DFACE
  5
3DE
330
1F
100
AcDbEntity
  8
grupo1
100
AcDbFace
 10
0.0000000000000038
 20
62.5
 30
130.0
 11
0.0000000000000077
 21
125.0
 31
130.0
 12
0.0000000000000077
 22
125.0
 32
195.0
 13
0.0000000000000038
 23
62.5
 33
195.0
  0
3DFACE
  5
3DF
330
1F
100
AcDbEntity
  8
grupo1
100
AcDbFace
 10
0.0000000000000077
 20
125.0
 30
130.0
 11
0.0000000000000115
 21
187.5
 31
130.0
 12
0.0000000000000115
 22
187.5
 32
195.0
 13
0.0000000000000077
 23
125.0
 33
195.0
  0
3DFACE
  5
3E0
330
1F
100
AcDbEntity
  8
grupo1
100
AcDbFace
 10
0.0000000000000115
 20
187.5
 30
130.0
 11
0.0000000000000153
 21
250.0
 31
130.0
 12
0.0000000000000153
 22
250.0
 32
195.0
 13
0.0000000000000115
 23
187.5
 33
195.0
  0
3DFACE
  5
3E1
330
1F
100
AcDbEntity
  8
grupo1
100
AcDbFace
 10
0.0000000000000153
 20
250.0
 30
130.0
 11
0.0000000000000191
 21
312.5
 31
130.0
 12
0.0000000000000191
 22
312.5
 32
195.0
 13
0.0000000000000153
 23
250.0
 33
195.0
  0
3DFACE
  5
3E2
330
1F
100
AcDbEntity
  8
grupo1
100
AcDbFace
 10
0.0000000000000191
 20
312.5
 30
130.0
 11
0.000000000000023
 21
375.0
 31
130.0
 12
0.000000000000023
 22
375.0
 32
195.0
 13
0.0000000000000191
 23
312.5
 33
195.0
  0
3DFACE
  5
3E3
330
1F
100
AcDbEntity
  8
grupo1
100
AcDbFace
 10
0.000000000000023
 20
375.0
 30
130.0
 11
0.0000000000000268
 21
437.5
 31
130.0
 12
0.0000000000000268
 22
437.5
 32
195.0
 13
0.000000000000023
 23
375.0
 33
195.0
  0
3DFACE
  5
3E4
330
1F
100
AcDbEntity
  8
grupo1
100
AcDbFace
 10
0.0000000000000268
 20
437.5
 30
130.0
 11
0.0000000000000306
 21
500.0
 31
130.0
 12
0.0000000000000306
 22
500.0
 32
195.0
 13
0.0000000000000268
 23
437.5
 33
195.0
  0
3DFACE
  5
3E5
330
1F
100
AcDbEntity
  8
grupo1
100
AcDbFace
 10
0.0
 20
0.0
 30
195.0
 11
0.0000000000000038
 21
62.5
 31
195.0
 12
0.0000000000000038
 22
62.5
 32
260.0
 13
0.0
 23
0.0
 33
260.0
  0
3DFACE
  5
3E6
330
1F
100
AcDbEntity
  8
grupo1
100
AcDbFace
 10
0.0000000000000038
 20
62.5
 30
195.0
 11
0.0000000000000077
 21
125.0
 31
195.0
 12
0.0000000000000077
 22
125.0
 32
260.0
 13
0.0000000000000038
 23
62.5
 33
260.0
  0
3DFACE
  5
3E7
330
1F
100
AcDbEntity
  8
grupo1
100
AcDbFace
 10
0.0000000000000077
 20
125.0
 30
195.0
 11
0.0000000000000115
 21
187.5
 31
195.0
 12
0.0000000000000115
 22
187.5
 32
260.0
 13
0.0000000000000077
 23
125.0
 33
260.0
  0
3DFACE
  5
3E8
330
1F
100
AcDbEntity
  8
grupo1
100
AcDbFace
 10
0.0000000000000115
 20
187.5
 30
195.0
 11
0.0000000000000153
 21
250.0
 31
195.0
 12
0.0000000000000153
 22
250.0
 32
260.0
 13
0.0000000000000115
 23
187.5
 33
260.0
  0
3DFACE
  5
3E9
330
1F
100
AcDbEntity
  8
grupo1
100
AcDbFace
 10
0.0000000000000153
 20
250.0
 30
195.0
 11
0.0000000000000191
 21
312.5
 31
195.0
 12
0.0000000000000191
 22
312.5
 32
260.0
 13
0.0000000000000153
 23
250.0
 33
260.0
  0
3DFACE
  5
3EA
330
1F
100
AcDbEntity
  8
grupo1
100
AcDbFace
 10
0.0000000000000191
 20
312.5
 30
195.0
 11
0.000000000000023
 21
375.0
 31
195.0
 12
0.000000000000023
 22
375.0
 32
260.0
 13
0.0000000000000191
 23
312.5
 33
260.0
  0
3DFACE
  5
3EB
330
1F
100
AcDbEntity
  8
grupo1
100
AcDbFace
 10
0.000000000000023
 20
375.0
 30
195.0
 11
0.0000000000000268
 21
437.5
 31
195.0
 12
0.0000000000000268
 22
437.5
 32
260.0
 13
0.000000000000023
 23
375.0
 33
260.0
  0
3DFACE
  5
3EC
330
1F
100
AcDbEntity
  8
grupo1
100
AcDbFace
 10
0.0000000000000268
 20
437.5
 30
195.0
 11
0.0000000000000306
 21
500.0
 31
195.0
 12
0.0000000000000306
 22
500.0
 32
260.0
 13
0.0000000000000268
 23
437.5
 33
260.0
  0
3DFACE
  5
3FB
330
1F
100
AcDbEntity
  8
grupo2
100
AcDbFace
 10
0.0000000000000306
 20
500.0
 30
0.0
 11
62.50000000000003
 21
500.0
 31
0.0
 12
62.50000000000003
 22
500.0
 32
65.0
 13
0.0000000000000306
 23
500.0
 33
65.0
  0
3DFACE
  5
3FC
330
1F
100
AcDbEntity
  8
grupo2
100
AcDbFace
 10
62.50000000000003
 20
500.0
 30
0.0
 11
125.0
 21
500.0
 31
0.0
 12
125.0
 22
500.0
 32
65.0
 13
62.50000000000003
 23
500.0
 33
65.0
  0
3DFACE
  5
3FD
330
1F
100
AcDbEntity
  8
grupo2
100
AcDbFace
 10
125.0
 20
500.0
 30
0.0
 11
187.5
 21
500.0
 31
0.0
 12
187.5
 22
500.0
 32
65.0
 13
125.0
 23
500.0
 33
65.0
  0
3DFACE
  5
3FE
330
1F
100
AcDbEntity
  8
grupo2
100
AcDbFace
 10
187.5
 20
500.0
 30
0.0
 11
250.0
 21
500.0
 31
0.0
 12
250.0
 22
500.0
 32
65.0
 13
187.5
 23
500.0
 33
65.0
  0
3DFACE
  5
3FF
330
1F
100
AcDbEntity
  8
grupo2
100
AcDbFace
 10
250.0
 20
500.0
 30
0.0
 11
312.5
 21
500.0
 31
0.0
 12
312.5
 22
500.0
 32
65.0
 13
250.0
 23
500.0
 33
65.0
  0
3DFACE
  5
400
330
1F
100
AcDbEntity
  8
grupo2
100
AcDbFace
 10
312.5
 20
500.0
 30
0.0
 11
375.0
 21
500.0
 31
0.0
 12
375.0
 22
500.0
 32
65.0
 13
312.5
 23
500.0
 33
65.0
  0
3DFACE
  5
401
330
1F
100
AcDbEntity
  8
grupo2
100
AcDbFace
 10
375.0
 20
500.0
 30
0.0
 11
437.5
 21
500.0
 31
0.0
 12
437.5
 22
500.0
 32
65.0
 13
375.0
 23
500.0
 33
65.0
  0
3DFACE
  5
402
330
1F
100
AcDbEntity
  8
grupo2
100
AcDbFace
 10
437.5
 20
500.0
 30
0.0
 11
500.0
 21
500.0
 31
0.0
 12
500.0
 22
500.0
 32
65.0
 13
437.5
 23
500.0
 33
65.0
  0
3DFACE
  5
403
330
1F
100
AcDbEntity
  8
grupo2
100
AcDbFace
 10
0.0000000000000306
 20
500.0
 30
65.0
 11
62.50000000000003
 21
500.0
 31
65.0
 12
62.50000000000003
 22
500.0
 32
130.0
 13
0.0000000000000306
 23
500.0
 33
130.0
  0
3DFACE
  5
404
330
1F
100
AcDbEntity
  8
grupo2
100
AcDbFace
 10
62.50000000000003
 20
500.0
 30
65.0
 11
125.0
 21
500.0
 31
65.0
 12
125.0
 22
500.0
 32
130.0
 13
62.50000000000003
 23
500.0
 33
130.0
  0
3DFACE
  5
405
330
1F
100
AcDbEntity
  8
grupo2
100
AcDbFace
 10
125.0
 20
500.0
 30
65.0
 11
187.5
 21
500.0
 31
65.0
 12
187.5
 22
500.0
 32
130.0
 13
125.0
 23
500.0
 33
130.0
  0
3DFACE
  5
406
330
1F
100
AcDbEntity
  8
grupo2
100
AcDbFace
 10
187.5
 20
500.0
 30
65.0
 11
250.0
 21
500.0
 31
65.0
 12
250.0
 22
500.0
 32
130.0
 13
187.5
 23
500.0
 33
130.0
  0
3DFACE
  5
407
330
1F
100
AcDbEntity
  8
grupo2
100
AcDbFace
 10
250.0
 20
500.0
 30
65.0
 11
312.5
 21
500.0
 31
65.0
 12
312.5
 22
500.0
 32
130.0
 13
250.0
 23
500.0
 33
130.0
  0
3DFACE
  5
408
330
1F
100
AcDbEntity
  8
grupo2
100
AcDbFace
 10
312.5
 20
500.0
 30
65.0
 11
375.0
 21
500.0
 31
65.0
 12
375.0
 22
500.0
 32
130.0
 13
312.5
 23
500.0
 33
130.0
  0
3DFACE
  5
409
330
1F
100
AcDbEntity
  8
grupo2
100
AcDbFace
 10
375.0
 20
500.0
 30
65.0
 11
437.5
 21
500.0
 31
65.0
 12
437.5
 22
500.0
 32
130.0
 13
375.0
 23
500.0
 33
130.0
  0
3DFACE
  5
40A
330
1F
100
AcDbEntity
  8
grupo2
100
AcDbFace
 10
437.5
 20
500.0
 30
65.0
 11
500.0
 21
500.0
 31
65.0
 12
500.0
 22
500.0
 32
130.0
 13
437.5
 23
500.0
 33
130.0
  0
3DFACE
  5
40B
330
1F
100
AcDbEntity
  8
grupo2
100
AcDbFace
 10
0.0000000000000306
 20
500.0
 30
130.0
 11
62.50000000000003
 21
500.0
 31
130.0
 12
62.50000000000003
 22
500.0
 32
195.0
 13
0.0000000000000306
 23
500.0
 33
195.0
  0
3DFACE
  5
40C
330
1F
100
AcDbEntity
  8
grupo2
100
AcDbFace
 10
62.50000000000003
 20
500.0
 30
130.0
 11
125.0
 21
500.0
 31
130.0
 12
125.0
 22
500.0
 32
195.0
 13
62.50000000000003
 23
500.0
 33
195.0
  0
3DFACE
  5
40D
330
1F
100
AcDbEntity
  8
grupo2
100
AcDbFace
 10
125.0
 20
500.0
 30
130.0
 11
187.5
 21
500.0
 31
130.0
 12
187.5
 22
500.0
 32
195.0
 13
125.0
 23
500.0
 33
195.0
  0
3DFACE
  5
40E
330
1F
100
AcDbEntity
  8
grupo2
100
AcDbFace
 10
187.5
 20
500.0
 30
130.0
 11
250.0
 21
500.0
 31
130.0
 12
250.0
 22
500.0
 32
195.0
 13
187.5
 23
500.0
 33
195.0
  0
3DFACE
  5
40F
330
1F
100
AcDbEntity
  8
grupo2
100
AcDbFace
 10
250.0
 20
500.0
 30
130.0
 11
312.5
 21
500.0
 31
130.0
 12
312.5
 22
500.0
 32
195.0
 13
250.0
 23
500.0
 33
195.0
  0
3DFACE
  5
410
330
1F
100
AcDbEntity
  8
grupo2
100
AcDbFace
 10
312.5
 20
500.0
 30
130.0
 11
375.0
 21
500.0
 31
130.0
 12
375.0
 22
500.0
 32
195.0
 13
312.5
 23
500.0
 33
195.0
  0
3DFACE
  5
411
330
1F
100
AcDbEntity
  8
grupo2
100
AcDbFace
 10
375.0
 20
500.0
 30
130.0
 11
437.5
 21
500.0
 31
130.0
 12
437.5
 22
500.0
 32
195.0
 13
375.0
 23
500.0
 33
195.0
  0
3DFACE
  5
412
330
1F
100
AcDbEntity
  8
grupo2
100
AcDbFace
 10
437.5
 20
500.0
 30
130.0
 11
500.0
 21
500.0
 31
130.0
 12
500.0
 22
500.0
 32
195.0
 13
437.5
 23
500.0
 33
195.0
  0
3DFACE
  5
413
330
1F
100
AcDbEntity
  8
grupo2
100
AcDbFace
 10
0.0000000000000306
 20
500.0
 30
195.0
 11
62.50000000000003
 21
500.0
 31
195.0
 12
62.50000000000003
 22
500.0
 32
260.0
 13
0.0000000000000306
 23
500.0
 33
260.0
  0
3DFACE
  5
414
330
1F
100
AcDbEntity
  8
grupo2
100
AcDbFace
 10
62.50000000000003
 20
500.0
 30
195.0
 11
125.0
 21
500.0
 31
195.0
 12
125.0
 22
500.0
 32
260.0
 13
62.50000000000003
 23
500.0
 33
260.0
  0
3DFACE
  5
415
330
1F
100
AcDbEntity
  8
grupo2
100
AcDbFace
 10
125.0
 20
500.0
 30
195.0
 11
187.5
 21
500.0
 31
195.0
 12
187.5
 22
500.0
 32
260.0
 13
125.0
 23
500.0
 33
260.0
  0
3DFACE
  5
416
330
1F
100
AcDbEntity
  8
grupo2
100
AcDbFace
 10
187.5
 20
500.0
 30
195.0
 11
250.0
 21
500.0
 31
195.0
 12
250.0
 22
500.0
 32
260.0
 13
187.5
 23
500.0
 33
260.0
  0
3DFACE
  5
417
330
1F
100
AcDbEntity
  8
grupo2
100
AcDbFace
 10
250.0
 20
500.0
 30
195.0
 11
312.5
 21
500.0
 31
195.0
 12
312.5
 22
500.0
 32
260.0
 13
250.0
 23
500.0
 33
260.0
  0
3DFACE
  5
418
330
1F
100
AcDbEntity
  8
grupo2
100
AcDbFace
 10
312.5
 20
500.0
 30
195.0
 11
375.0
 21
500.0
 31
195.0
 12
375.0
 22
500.0
 32
260.0
 13
312.5
 23
500.0
 33
260.0
  0
3DFACE
  5
419
330
1F
100
AcDbEntity
  8
grupo2
100
AcDbFace
 10
375.0
 20
500.0
 30
195.0
 11
437.5
 21
500.0
 31
195.0
 12
437.5
 22
500.0
 32
260.0
 13
375.0
 23
500.0
 33
260.0
  0
3DFACE
  5
41A
330
1F
100
AcDbEntity
  8
grupo2
100
AcDbFace
 10
437.5
 20
500.0
 30
195.0
 11
500.0
 21
500.0
 31
195.0
 12
500.0
 22
500.0
 32
260.0
 13
437.5
 23
500.0
 33
260.0
  0
3DFACE
  5
429
330
1F
100
AcDbEntity
  8
grupo3
100
AcDbFace
 10
500.0
 20
500.0
 30
0.0
 11
500.0
 21
437.5
 31
0.0
 12
500.0
 22
437.5
 32
65.0
 13
500.0
 23
500.0
 33
65.0
  0
3DFACE
  5
42A
330
1F
100
AcDbEntity
  8
grupo3
100
AcDbFace
 10
500.0
 20
437.5
 30
0.0
 11
500.0
 21
375.0
 31
0.0
 12
500.0
 22
375.0
 32
65.0
 13
500.0
 23
437.5
 33
65.0
  0
3DFACE
  5
42B
330
1F
100
AcDbEntity
  8
grupo3
100
AcDbFace
 10
500.0
 20
375.0
 30
0.0
 11
500.0
 21
312.5
 31
0.0
 12
500.0
 22
312.5
 32
65.0
 13
500.0
 23
375.0
 33
65.0
  0
3DFACE
  5
42C
330
1F
100
AcDbEntity
  8
grupo3
100
AcDbFace
 10
500.0
 20
312.5
 30
0.0
 11
500.0
 21
250.0
 31
0.0
 12
500.0
 22
250.0
 32
65.0
 13
500.0
 23
312.5
 33
65.0
  0
3DFACE
  5
42D
330
1F
100
AcDbEntity
  8
grupo3
100
AcDbFace
 10
500.0
 20
250.0
 30
0.0
 11
500.0
 21
187.5
 31
0.0
 12
500.0
 22
187.5
 32
65.0
 13
500.0
 23
250.0
 33
65.0
  0
3DFACE
  5
42E
330
1F
100
AcDbEntity
  8
grupo3
100
AcDbFace
 10
500.0
 20
187.5
 30
0.0
 11
500.0
 21
125.0
 31
0.0
 12
500.0
 22
125.0
 32
65.0
 13
500.0
 23
187.5
 33
65.0
  0
3DFACE
  5
42F
330
1F
100
AcDbEntity
  8
grupo3
100
AcDbFace
 10
500.0
 20
125.0
 30
0.0
 11
500.0
 21
62.5
 31
0.0
 12
500.0
 22
62.5
 32
65.0
 13
500.0
 23
125.0
 33
65.0
  0
3DFACE
  5
430
330
1F
100
AcDbEntity
  8
grupo3
100
AcDbFace
 10
500.0
 20
62.5
 30
0.0
 11
500.0
 21
0.0
 31
0.0
 12
500.0
 22
0.0
 32
65.0
 13
500.0
 23
62.5
 33
65.0
  0
3DFACE
  5
431
330
1F
100
AcDbEntity
  8
grupo3
100
AcDbFace
 10
500.0
 20
500.0
 30
65.0
 11
500.0
 21
437.5
 31
65.0
 12
500.0
 22
437.5
 32
130.0
 13
500.0
 23
500.0
 33
130.0
  0
3DFACE
  5
432
330
1F
100
AcDbEntity
  8
grupo3
100
AcDbFace
 10
500.0
 20
437.5
 30
65.0
 11
500.0
 21
375.0
 31
65.0
 12
500.0
 22
375.0
 32
130.0
 13
500.0
 23
437.5
 33
130.0
  0
3DFACE
  5
433
330
1F
100
AcDbEntity
  8
grupo3
100
AcDbFace
 10
500.0
 20
375.0
 30
65.0
 11
500.0
 21
312.5
 31
65.0
 12
500.0
 22
312.5
 32
130.0
 13
500.0
 23
375.0
 33
130.0
  0
3DFACE
  5
434
330
1F
100
AcDbEntity
  8
grupo3
100
AcDbFace
 10
500.0
 20
312.5
 30
65.0
 11
500.0
 21
250.0
 31
65.0
 12
500.0
 22
250.0
 32
130.0
 13
500.0
 23
312.5
 33
130.0
  0
3DFACE
  5
435
330
1F
100
AcDbEntity
  8
grupo3
100
AcDbFace
 10
500.0
 20
250.0
 30
65.0
 11
500.0
 21
187.5
 31
65.0
 12
500.0
 22
187.5
 32
130.0
 13
500.0
 23
250.0
 33
130.0
  0
3DFACE
  5
436
330
1F
100
AcDbEntity
  8
grupo3
100
AcDbFace
 10
500.0
 20
187.5
 30
65.0
 11
500.0
 21
125.0
 31
65.0
 12
500.0
 22
125.0
 32
130.0
 13
500.0
 23
187.5
 33
130.0
  0
3DFACE
  5
437
330
1F
100
AcDbEntity
  8
grupo3
100
AcDbFace
 10
500.0
 20
125.0
 30
65.0
 11
500.0
 21
62.5
 31
65.0
 12
500.0
 22
62.5
 32
130.0
 13
500.0
 23
125.0
 33
130.0
  0
3DFACE
  5
438
330
1F
100
AcDbEntity
  8
grupo3
100
AcDbFace
 10
500.0
 20
62.5
 30
65.0
 11
500.0
 21
0.0
 31
65.0
 12
500.0
 22
0.0
 32
130.0
 13
500.0
 23
62.5
 33
130.0
  0
3DFACE
  5
439
330
1F
100
AcDbEntity
  8
grupo3
100
AcDbFace
 10
500.0
 20
500.0
 30
130.0
 11
500.0
 21
437.5
 31
130.0
 12
500.0
 22
437.5
 32
195.0
 13
500.0
 23
500.0
 33
195.0
  0
3DFACE
  5
43A
330
1F
100
AcDbEntity
  8
grupo3
100
AcDbFace
 10
500.0
 20
437.5
 30
130.0
 11
500.0
 21
375.0
 31
130.0
 12
500.0
 22
375.0
 32
195.0
 13
500.0
 23
437.5
 33
195.0
  0
3DFACE
  5
43B
330
1F
100
AcDbEntity
  8
grupo3
100
AcDbFace
 10
500.0
 20
375.0
 30
130.0
 11
500.0
 21
312.5
 31
130.0
 12
500.0
 22
312.5
 32
195.0
 13
500.0
 23
375.0
 33
195.0
  0
3DFACE
  5
43C
330
1F
100
AcDbEntity
  8
grupo3
100
AcDbFace
 10
500.0
 20
312.5
 30
130.0
 11
500.0
 21
250.0
 31
130.0
 12
500.0
 22
250.0
 32
195.0
 13
500.0
 23
312.5
 33
195.0
  0
3DFACE
  5
43D
330
1F
100
AcDbEntity
  8
grupo3
100
AcDbFace
 10
500.0
 20
250.0
 30
130.0
 11
500.0
 21
187.5
 31
130.0
 12
500.0
 22
187.5
 32
195.0
 13
500.0
 23
250.0
 33
195.0
  0
3DFACE
  5
43E
330
1F
100
AcDbEntity
  8
grupo3
100
AcDbFace
 10
500.0
 20
187.5
 30
130.0
 11
500.0
 21
125.0
 31
130.0
 12
500.0
 22
125.0
 32
195.0
 13
500.0
 23
187.5
 33
195.0
  0
3DFACE
  5
43F
330
1F
100
AcDbEntity
  8
grupo3
100
AcDbFace
 10
500.0
 20
125.0
 30
130.0
 11
500.0
 21
62.5
 31
130.0
 12
500.0
 22
62.5
 32
195.0
 13
500.0
 23
125.0
 33
195.0
  0
3DFACE
  5
440
330
1F
100
AcDbEntity
  8
grupo3
100
AcDbFace
 10
500.0
 20
62.5
 30
130.0
 11
500.0
 21
0.0
 31
130.0
 12
500.0
 22
0.0
 32
195.0
 13
500.0
 23
62.5
 33
195.0
  0
3DFACE
  5
441
330
1F
100
AcDbEntity
  8
grupo3
100
AcDbFace
 10
500.0
 20
500.0
 30
195.0
 11
500.0
 21
437.5
 31
195.0
 12
500.0
 22
437.5
 32
260.0
 13
500.0
 23
500.0
 33
260.0
  0
3DFACE
  5
442
330
1F
100
AcDbEntity
  8
grupo3
100
AcDbFace
 10
500.0
 20
437.5
 30
195.0
 11
500.0
 21
375.0
 31
195.0
 12
500.0
 22
375.0
 32
260.0
 13
500.0
 23
437.5
 33
260.0
  0
3DFACE
  5
443
330
1F
100
AcDbEntity
  8
grupo3
100
AcDbFace
 10
500.0
 20
375.0
 30
195.0
 11
500.0
 21
312.5
 31
195.0
 12
500.0
 22
312.5
 32
260.0
 13
500.0
 23
375.0
 33
260.0
  0
3DFACE
  5
444
330
1F
100
AcDbEntity
  8
grupo3
100
AcDbFace
 10
500.0
 20
312.5
 30
195.0
 11
500.0
 21
250.0
 31
195.0
 12
500.0
 22
250.0
 32
260.0
 13
500.0
 23
312.5
 33
260.0
  0
3DFACE
  5
445
330
1F
100
AcDbEntity
  8
grupo3
100
AcDbFace
 10
500.0
 20
250.0
 30
195.0
 11
500.0
 21
187.5
 31
195.0
 12
500.0
 22
187.5
 32
260.0
 13
500.0
 23
250.0
 33
260.0
  0
3DFACE
  5
446
330
1F
100
AcDbEntity
  8
grupo3
100
AcDbFace
 10
500.0
 20
187.5
 30
195.0
 11
500.0
 21
125.0
 31
195.0
 12
500.0
 22
125.0
 32
260.0
 13
500.0
 23
187.5
 33
260.0
  0
3DFACE
  5
447
330
1F
100
AcDbEntity
  8
grupo3
100
AcDbFace
 10
500.0
 20
125.0
 30
195.0
 11
500.0
 21
62.5
 31
195.0
 12
500.0
 22
62.5
 32
260.0
 13
500.0
 23
125.0
 33
260.0
  0
3DFACE
  5
448
330
1F
100
AcDbEntity
  8
grupo3
100
AcDbFace
 10
500.0
 20
62.5
 30
195.0
 11
500.0
 21
0.0
 31
195.0
 12
500.0
 22
0.0
 32
260.0
 13
500.0
 23
62.5
 33
260.0
  0
3DFACE
  5
4A1
330
1F
100
AcDbEntity
  8
grupo4
100
AcDbFace
 10
499.9999999999999
 20
0.0
 30
0.0
 11
437.4999999999999
 21
0.0000000000000077
 31
0.0
 12
437.4999999999999
 22
0.0000000000000077
 32
65.0
 13
499.9999999999999
 23
0.0
 33
65.0
  0
3DFACE
  5
4A2
330
1F
100
AcDbEntity
  8
grupo4
100
AcDbFace
 10
437.4999999999999
 20
0.0000000000000077
 30
0.0
 11
375.0
 21
0.0000000000000153
 31
0.0
 12
375.0
 22
0.0000000000000153
 32
65.0
 13
437.4999999999999
 23
0.0000000000000077
 33
65.0
  0
3DFACE
  5
4A3
330
1F
100
AcDbEntity
  8
grupo4
100
AcDbFace
 10
375.0
 20
0.0000000000000153
 30
0.0
 11
312.5
 21
0.000000000000023
 31
0.0
 12
312.5
 22
0.000000000000023
 32
65.0
 13
375.0
 23
0.0000000000000153
 33
65.0
  0
3DFACE
  5
4A4
330
1F
100
AcDbEntity
  8
grupo4
100
AcDbFace
 10
312.5
 20
0.000000000000023
 30
0.0
 11
250.0
 21
0.0000000000000306
 31
0.0
 12
250.0
 22
0.0000000000000306
 32
65.0
 13
312.5
 23
0.000000000000023
 33
65.0
  0
3DFACE
  5
4A5
330
1F
100
AcDbEntity
  8
grupo4
100
AcDbFace
 10
250.0
 20
0.0000000000000306
 30
0.0
 11
187.4999999999999
 21
0.0000000000000383
 31
0.0
 12
187.4999999999999
 22
0.0000000000000383
 32
65.0
 13
250.0
 23
0.0000000000000306
 33
65.0
  0
3DFACE
  5
4A6
330
1F
100
AcDbEntity
  8
grupo4
100
AcDbFace
 10
187.4999999999999
 20
0.0000000000000383
 30
0.0
 11
124.9999999999999
 21
0.0000000000000459
 31
0.0
 12
124.9999999999999
 22
0.0000000000000459
 32
65.0
 13
187.4999999999999
 23
0.0000000000000383
 33
65.0
  0
3DFACE
  5
4A7
330
1F
100
AcDbEntity
  8
grupo4
100
AcDbFace
 10
124.9999999999999
 20
0.0000000000000459
 30
0.0
 11
62.49999999999995
 21
0.0000000000000536
 31
0.0
 12
62.49999999999995
 22
0.0000000000000536
 32
65.0
 13
124.9999999999999
 23
0.0000000000000459
 33
65.0
  0
3DFACE
  5
4A8
330
1F
100
AcDbEntity
  8
grupo4
100
AcDbFace
 10
62.49999999999995
 20
0.0000000000000536
 30
0.0
 11
-0.0000000000000426
 21
0.0000000000000612
 31
0.0
 12
-0.0000000000000426
 22
0.0000000000000612
 32
65.0
 13
62.49999999999995
 23
0.0000000000000536
 33
65.0
  0
3DFACE
  5
4A9
330
1F
100
AcDbEntity
  8
grupo4
100
AcDbFace
 10
499.9999999999999
 20
0.0
 30
65.0
 11
437.4999999999999
 21
0.0000000000000077
 31
65.0
 12
437.4999999999999
 22
0.0000000000000077
 32
130.0
 13
499.9999999999999
 23
0.0
 33
130.0
  0
3DFACE
  5
4AA
330
1F
100
AcDbEntity
  8
grupo4
100
AcDbFace
 10
437.4999999999999
 20
0.0000000000000077
 30
65.0
 11
375.0
 21
0.0000000000000153
 31
65.0
 12
375.0
 22
0.0000000000000153
 32
130.0
 13
437.4999999999999
 23
0.0000000000000077
 33
130.0
  0
3DFACE
  5
4AB
330
1F
100
AcDbEntity
  8
grupo4
100
AcDbFace
 10
375.0
 20
0.0000000000000153
 30
65.0
 11
312.5
 21
0.000000000000023
 31
65.0
 12
312.5
 22
0.000000000000023
 32
130.0
 13
375.0
 23
0.0000000000000153
 33
130.0
  0
3DFACE
  5
4AC
330
1F
100
AcDbEntity
  8
grupo4
100
AcDbFace
 10
312.5
 20
0.000000000000023
 30
65.0
 11
250.0
 21
0.0000000000000306
 31
65.0
 12
250.0
 22
0.0000000000000306
 32
130.0
 13
312.5
 23
0.000000000000023
 33
130.0
  0
3DFACE
  5
4AD
330
1F
100
AcDbEntity
  8
grupo4
100
AcDbFace
 10
250.0
 20
0.0000000000000306
 30
65.0
 11
187.4999999999999
 21
0.0000000000000383
 31
65.0
 12
187.4999999999999
 22
0.0000000000000383
 32
130.0
 13
250.0
 23
0.0000000000000306
 33
130.0
  0
3DFACE
  5
4AE
330
1F
100
AcDbEntity
  8
grupo4
100
AcDbFace
 10
187.4999999999999
 20
0.0000000000000383
 30
65.0
 11
124.9999999999999
 21
0.0000000000000459
 31
65.0
 12
124.9999999999999
 22
0.0000000000000459
 32
130.0
 13
187.4999999999999
 23
0.0000000000000383
 33
130.0
  0
3DFACE
  5
4AF
330
1F
100
AcDbEntity
  8
grupo4
100
AcDbFace
 10
124.9999999999999
 20
0.0000000000000459
 30
65.0
 11
62.49999999999995
 21
0.0000000000000536
 31
65.0
 12
62.49999999999995
 22
0.0000000000000536
 32
130.0
 13
124.9999999999999
 23
0.0000000000000459
 33
130.0
  0
3DFACE
  5
4B0
330
1F
100
AcDbEntity
  8
grupo4
100
AcDbFace
 10
62.49999999999995
 20
0.0000000000000536
 30
65.0
 11
-0.0000000000000426
 21
0.0000000000000612
 31
65.0
 12
-0.0000000000000426
 22
0.0000000000000612
 32
130.0
 13
62.49999999999995
 23
0.0000000000000536
 33
130.0
  0
3DFACE
  5
4B1
330
1F
100
AcDbEntity
  8
grupo4
100
AcDbFace
 10
499.9999999999999
 20
0.0
 30
130.0
 11
437.4999999999999
 21
0.0000000000000077
 31
130.0
 12
437.4999999999999
 22
0.0000000000000077
 32
195.0
 13
499.9999999999999
 23
0.0
 33
195.0
  0
3DFACE
  5
4B2
330
1F
100
AcDbEntity
  8
grupo4
100
AcDbFace
 10
437.4999999999999
 20
0.0000000000000077
 30
130.0
 11
375.0
 21
0.0000000000000153
 31
130.0
 12
375.0
 22
0.0000000000000153
 32
195.0
 13
437.4999999999999
 23
0.0000000000000077
 33
195.0
  0
3DFACE
  5
4B3
330
1F
100
AcDbEntity
  8
grupo4
100
AcDbFace
 10
375.0
 20
0.0000000000000153
 30
130.0
 11
312.5
 21
0.000000000000023
 31
130.0
 12
312.5
 22
0.000000000000023
 32
195.0
 13
375.0
 23
0.0000000000000153
 33
195.0
  0
3DFACE
  5
4B4
330
1F
100
AcDbEntity
  8
grupo4
100
AcDbFace
 10
312.5
 20
0.000000000000023
 30
130.0
 11
250.0
 21
0.0000000000000306
 31
130.0
 12
250.0
 22
0.0000000000000306
 32
195.0
 13
312.5
 23
0.000000000000023
 33
195.0
  0
3DFACE
  5
4B5
330
1F
100
AcDbEntity
  8
grupo4
100
AcDbFace
 10
250.0
 20
0.0000000000000306
 30
130.0
 11
187.4999999999999
 21
0.0000000000000383
 31
130.0
 12
187.4999999999999
 22
0.0000000000000383
 32
195.0
 13
250.0
 23
0.0000000000000306
 33
195.0
  0
3DFACE
  5
4B6
330
1F
100
AcDbEntity
  8
grupo4
100
AcDbFace
 10
187.4999999999999
 20
0.0000000000000383
 30
130.0
 11
124.9999999999999
 21
0.0000000000000459
 31
130.0
 12
124.9999999999999
 22
0.0000000000000459
 32
195.0
 13
187.4999999999999
 23
0.0000000000000383
 33
195.0
  0
3DFACE
  5
4B7
330
1F
100
AcDbEntity
  8
grupo4
100
AcDbFace
 10
124.9999999999999
 20
0.0000000000000459
 30
130.0
 11
62.49999999999995
 21
0.0000000000000536
 31
130.0
 12
62.49999999999995
 22
0.0000000000000536
 32
195.0
 13
124.9999999999999
 23
0.0000000000000459
 33
195.0
  0
3DFACE
  5
4B8
330
1F
100
AcDbEntity
  8
grupo4
100
AcDbFace
 10
62.49999999999995
 20
0.0000000000000536
 30
130.0
 11
-0.0000000000000426
 21
0.0000000000000612
 31
130.0
 12
-0.0000000000000426
 22
0.0000000000000612
 32
195.0
 13
62.49999999999995
 23
0.0000000000000536
 33
195.0
  0
3DFACE
  5
4B9
330
1F
100
AcDbEntity
  8
grupo4
100
AcDbFace
 10
499.9999999999999
 20
0.0
 30
195.0
 11
437.4999999999999
 21
0.0000000000000077
 31
195.0
 12
437.4999999999999
 22
0.0000000000000077
 32
260.0
 13
499.9999999999999
 23
0.0
 33
260.0
  0
3DFACE
  5
4BA
330
1F
100
AcDbEntity
  8
grupo4
100
AcDbFace
 10
437.4999999999999
 20
0.0000000000000077
 30
195.0
 11
375.0
 21
0.0000000000000153
 31
195.0
 12
375.0
 22
0.0000000000000153
 32
260.0
 13
437.4999999999999
 23
0.0000000000000077
 33
260.0
  0
3DFACE
  5
4BB
330
1F
100
AcDbEntity
  8
grupo4
100
AcDbFace
 10
375.0
 20
0.0000000000000153
 30
195.0
 11
312.5
 21
0.000000000000023
 31
195.0
 12
312.5
 22
0.000000000000023
 32
260.0
 13
375.0
 23
0.0000000000000153
 33
260.0
  0
3DFACE
  5
4BC
330
1F
100
AcDbEntity
  8
grupo4
100
AcDbFace
 10
312.5
 20
0.000000000000023
 30
195.0
 11
250.0
 21
0.0000000000000306
 31
195.0
 12
250.0
 22
0.0000000000000306
 32
260.0
 13
312.5
 23
0.000000000000023
 33
260.0
  0
3DFACE
  5
4BD
330
1F
100
AcDbEntity
  8
grupo4
100
AcDbFace
 10
250.0
 20
0.0000000000000306
 30
195.0
 11
187.4999999999999
 21
0.0000000000000383
 31
195.0
 12
187.4999999999999
 22
0.0000000000000383
 32
260.0
 13
250.0
 23
0.0000000000000306
 33
260.0
  0
3DFACE
  5
4BE
330
1F
100
AcDbEntity
  8
grupo4
100
AcDbFace
 10
187.4999999999999
 20
0.0000000000000383
 30
195.0
 11
124.9999999999999
 21
0.0000000000000459
 31
195.0
 12
124.9999999999999
 22
0.0000000000000459
 32
260.0
 13
187.4999999999999
 23
0.0000000000000383
 33
260.0
  0
3DFACE
  5
4BF
330
1F
100
AcDbEntity
  8
grupo4
100
AcDbFace
 10
124.9999999999999
 20
0.0000000000000459
 30
195.0
 11
62.49999999999995
 21
0.0000000000000536
 31
195.0
 12
62.49999999999995
 22
0.0000000000000536
 32
260.0
 13
124.9999999999999
 23
0.0000000000000459
 33
260.0
  0
3DFACE
  5
4C0
330
1F
100
AcDbEntity
  8
grupo4
100
AcDbFace
 10
62.49999999999995
 20
0.0000000000000536
 30
195.0
 11
-0.0000000000000426
 21
0.0000000000000612
 31
195.0
 12
-0.0000000000000426
 22
0.0000000000000612
 32
260.0
 13
62.49999999999995
 23
0.0000000000000536
 33
260.0
  0
3DFACE
  5
588
330
1F
100
AcDbEntity
  8
laje
100
AcDbFace
 10
437.4999999999999
 20
0.0000000000000077
 30
260.0
 11
499.9999999999999
 21
0.0
 31
260.0
 12
500.0
 22
62.5
 32
260.0
 13
437.4999999999999
 23
62.5
 33
260.0
  0
3DFACE
  5
5A3
330
1F
100
AcDbEntity
  8
laje
100
AcDbFace
 10
375.0
 20
0.0000000000000153
 30
260.0
 11
437.4999999999999
 21
0.0000000000000077
 31
260.0
 12
437.5
 22
62.5
 32
260.0
 13
375.0
 23
62.50000000000001
 33
260.0
  0
3DFACE
  5
5A4
330
1F
100
AcDbEntity
  8
laje
100
AcDbFace
 10
312.5
 20
0.000000000000023
 30
260.0
 11
375.0
 21
0.0000000000000153
 31
260.0
 12
375.0
 22
62.50000000000001
 32
260.0
 13
312.5
 23
62.50000000000002
 33
260.0
  0
3DFACE
  5
5A5
330
1F
100
AcDbEntity
  8
laje
100
AcDbFace
 10
250.0
 20
0.0000000000000306
 30
260.0
 11
312.5
 21
0.000000000000023
 31
260.0
 12
312.5
 22
62.50000000000002
 32
260.0
 13
250.0
 23
62.50000000000003
 33
260.0
  0
3DFACE
  5
5BE
330
1F
100
AcDbEntity
  8
laje
100
AcDbFace
 10
187.4999999999999
 20
0.0000000000000383
 30
260.0
 11
250.0
 21
0.0000000000000306
 31
260.0
 12
250.0
 22
62.50000000000003
 32
260.0
 13
187.4999999999999
 23
62.50000000000003
 33
260.0
  0
3DFACE
  5
5BF
330
1F
100
AcDbEntity
  8
laje
100
AcDbFace
 10
124.9999999999999
 20
0.0000000000000459
 30
260.0
 11
187.4999999999999
 21
0.0000000000000383
 31
260.0
 12
187.5
 22
62.50000000000003
 32
260.0
 13
124.9999999999999
 23
62.50000000000004
 33
260.0
  0
3DFACE
  5
5C0
330
1F
100
AcDbEntity
  8
laje
100
AcDbFace
 10
62.49999999999994
 20
0.0000000000000536
 30
260.0
 11
124.9999999999999
 21
0.0000000000000459
 31
260.0
 12
125.0
 22
62.50000000000004
 32
260.0
 13
62.49999999999994
 23
62.50000000000005
 33
260.0
  0
3DFACE
  5
5C1
330
1F
100
AcDbEntity
  8
laje
100
AcDbFace
 10
-0.0000000000000568
 20
0.0000000000000612
 30
260.0
 11
62.49999999999994
 21
0.0000000000000536
 31
260.0
 12
62.50000000000006
 22
62.50000000000005
 32
260.0
 13
-0.0000000000000568
 23
62.50000000000006
 33
260.0
  0
3DFACE
  5
5CC
330
1F
100
AcDbEntity
  8
laje
100
AcDbFace
 10
437.4999999999999
 20
62.5
 30
260.0
 11
499.9999999999999
 21
62.5
 31
260.0
 12
500.0
 22
125.0
 32
260.0
 13
437.4999999999999
 23
125.0
 33
260.0
  0
3DFACE
  5
5CD
330
1F
100
AcDbEntity
  8
laje
100
AcDbFace
 10
375.0
 20
62.50000000000001
 30
260.0
 11
437.4999999999999
 21
62.5
 31
260.0
 12
437.5
 22
125.0
 32
260.0
 13
375.0
 23
125.0
 33
260.0
  0
3DFACE
  5
5CE
330
1F
100
AcDbEntity
  8
laje
100
AcDbFace
 10
312.5
 20
62.50000000000002
 30
260.0
 11
375.0
 21
62.50000000000001
 31
260.0
 12
375.0
 22
125.0
 32
260.0
 13
312.5
 23
125.0
 33
260.0
  0
3DFACE
  5
5CF
330
1F
100
AcDbEntity
  8
laje
100
AcDbFace
 10
250.0
 20
62.50000000000003
 30
260.0
 11
312.5
 21
62.50000000000002
 31
260.0
 12
312.5
 22
125.0
 32
260.0
 13
250.0
 23
125.0
 33
260.0
  0
3DFACE
  5
5D0
330
1F
100
AcDbEntity
  8
laje
100
AcDbFace
 10
187.4999999999999
 20
62.50000000000003
 30
260.0
 11
250.0
 21
62.50000000000003
 31
260.0
 12
250.0
 22
125.0
 32
260.0
 13
187.4999999999999
 23
125.0
 33
260.0
  0
3DFACE
  5
5D1
330
1F
100
AcDbEntity
  8
laje
100
AcDbFace
 10
124.9999999999999
 20
62.50000000000004
 30
260.0
 11
187.4999999999999
 21
62.50000000000003
 31
260.0
 12
187.5
 22
125.0
 32
260.0
 13
124.9999999999999
 23
125.0
 33
260.0
  0
3DFACE
  5
5D2
330
1F
100
AcDbEntity
  8
laje
100
AcDbFace
 10
62.49999999999994
 20
62.50000000000006
 30
260.0
 11
124.9999999999999
 21
62.50000000000004
 31
260.0
 12
125.0
 22
125.0
 32
260.0
 13
62.49999999999994
 23
125.0
 33
260.0
  0
3DFACE
  5
5D3
330
1F
100
AcDbEntity
  8
laje
100
AcDbFace
 10
-0.0000000000000568
 20
62.50000000000007
 30
260.0
 11
62.49999999999994
 21
62.50000000000006
 31
260.0
 12
62.50000000000006
 22
125.0
 32
260.0
 13
-0.0000000000000568
 23
125.0
 33
260.0
  0
3DFACE
  5
5D9
330
1F
100
AcDbEntity
  8
laje
100
AcDbFace
 10
0.0000000000000568
 20
125.0
 30
260.0
 11
62.50000000000006
 21
125.0
 31
260.0
 12
62.50000000000017
 22
187.5
 32
260.0
 13
0.0000000000000568
 23
187.5
 33
260.0
  0
3DFACE
  5
5DA
330
1F
100
AcDbEntity
  8
laje
100
AcDbFace
 10
62.50000000000006
 20
125.0
 30
260.0
 11
125.0
 21
125.0
 31
260.0
 12
125.0000000000001
 22
187.5
 32
260.0
 13
62.50000000000006
 23
187.5
 33
260.0
  0
3DFACE
  5
5DB
330
1F
100
AcDbEntity
  8
laje
100
AcDbFace
 10
125.0
 20
125.0
 30
260.0
 11
187.5
 21
125.0
 31
260.0
 12
187.5000000000001
 22
187.5
 32
260.0
 13
125.0
 23
187.5
 33
260.0
  0
3DFACE
  5
5DC
330
1F
100
AcDbEntity
  8
laje
100
AcDbFace
 10
187.5
 20
125.0
 30
260.0
 11
250.0
 21
125.0
 31
260.0
 12
250.0000000000002
 22
187.5
 32
260.0
 13
187.5
 23
187.5
 33
260.0
  0
3DFACE
  5
5DD
330
1F
100
AcDbEntity
  8
laje
100
AcDbFace
 10
250.0
 20
125.0
 30
260.0
 11
312.5
 21
125.0
 31
260.0
 12
312.5000000000002
 22
187.5
 32
260.0
 13
250.0
 23
187.5
 33
260.0
  0
3DFACE
  5
5DE
330
1F
100
AcDbEntity
  8
laje
100
AcDbFace
 10
312.5
 20
125.0
 30
260.0
 11
375.0
 21
125.0
 31
260.0
 12
375.0000000000002
 22
187.5
 32
260.0
 13
312.5
 23
187.5
 33
260.0
  0
3DFACE
  5
5DF
330
1F
100
AcDbEntity
  8
laje
100
AcDbFace
 10
375.0
 20
125.0
 30
260.0
 11
437.5
 21
125.0
 31
260.0
 12
437.5000000000001
 22
187.5
 32
260.0
 13
375.0
 23
187.5
 33
260.0
  0
3DFACE
  5
5E0
330
1F
100
AcDbEntity
  8
laje
100
AcDbFace
 10
437.5
 20
125.0
 30
260.0
 11
500.0
 21
125.0
 31
260.0
 12
500.0000000000001
 22
187.5
 32
260.0
 13
437.5
 23
187.5
 33
260.0
  0
3DFACE
  5
5E1
330
1F
100
AcDbEntity
  8
laje
100
AcDbFace
 10
0.0000000000001705
 20
187.5
 30
260.0
 11
62.50000000000017
 21
187.5
 31
260.0
 12
62.50000000000028
 22
250.0
 32
260.0
 13
0.0000000000001705
 23
250.0
 33
260.0
  0
3DFACE
  5
5E2
330
1F
100
AcDbEntity
  8
laje
100
AcDbFace
 10
62.50000000000017
 20
187.5
 30
260.0
 11
125.0000000000001
 21
187.5
 31
260.0
 12
125.0000000000003
 22
250.0
 32
260.0
 13
62.50000000000017
 23
250.0
 33
260.0
  0
3DFACE
  5
5E3
330
1F
100
AcDbEntity
  8
laje
100
AcDbFace
 10
125.0000000000001
 20
187.5
 30
260.0
 11
187.5000000000001
 21
187.5
 31
260.0
 12
187.5000000000003
 22
250.0
 32
260.0
 13
125.0000000000001
 23
250.0
 33
260.0
  0
3DFACE
  5
5E4
330
1F
100
AcDbEntity
  8
laje
100
AcDbFace
 10
187.5000000000001
 20
187.5
 30
260.0
 11
250.0000000000002
 21
187.5
 31
260.0
 12
250.0000000000003
 22
250.0
 32
260.0
 13
187.5000000000001
 23
250.0
 33
260.0
  0
3DFACE
  5
5E5
330
1F
100
AcDbEntity
  8
laje
100
AcDbFace
 10
250.0000000000002
 20
187.5
 30
260.0
 11
312.5000000000002
 21
187.5
 31
260.0
 12
312.5000000000003
 22
250.0
 32
260.0
 13
250.0000000000002
 23
250.0
 33
260.0
  0
3DFACE
  5
5E6
330
1F
100
AcDbEntity
  8
laje
100
AcDbFace
 10
312.5000000000002
 20
187.5
 30
260.0
 11
375.0000000000002
 21
187.5
 31
260.0
 12
375.0000000000003
 22
250.0
 32
260.0
 13
312.5000000000002
 23
250.0
 33
260.0
  0
3DFACE
  5
5E7
330
1F
100
AcDbEntity
  8
laje
100
AcDbFace
 10
375.0000000000002
 20
187.5
 30
260.0
 11
437.5000000000001
 21
187.5
 31
260.0
 12
437.5000000000002
 22
250.0
 32
260.0
 13
375.0000000000002
 23
250.0
 33
260.0
  0
3DFACE
  5
5E8
330
1F
100
AcDbEntity
  8
laje
100
AcDbFace
 10
437.5000000000001
 20
187.5
 30
260.0
 11
500.0000000000001
 21
187.5
 31
260.0
 12
500.0000000000002
 22
250.0
 32
260.0
 13
437.5000000000001
 23
250.0
 33
260.0
  0
3DFACE
  5
5E9
330
1F
100
AcDbEntity
  8
laje
100
AcDbFace
 10
0.0000000000000568
 20
250.0
 30
260.0
 11
62.50000000000006
 21
250.0
 31
260.0
 12
62.50000000000017
 22
312.5
 32
260.0
 13
0.0000000000000568
 23
312.5
 33
260.0
  0
3DFACE
  5
5EA
330
1F
100
AcDbEntity
  8
laje
100
AcDbFace
 10
62.50000000000006
 20
250.0
 30
260.0
 11
125.0
 21
250.0
 31
260.0
 12
125.0000000000001
 22
312.5
 32
260.0
 13
62.50000000000006
 23
312.5
 33
260.0
  0
3DFACE
  5
5EB
330
1F
100
AcDbEntity
  8
laje
100
AcDbFace
 10
125.0
 20
250.0
 30
260.0
 11
187.5
 21
250.0
 31
260.0
 12
187.5000000000001
 22
312.5
 32
260.0
 13
125.0
 23
312.5
 33
260.0
  0
3DFACE
  5
5EC
330
1F
100
AcDbEntity
  8
laje
100
AcDbFace
 10
187.5
 20
250.0
 30
260.0
 11
250.0
 21
250.0
 31
260.0
 12
250.0000000000002
 22
312.5
 32
260.0
 13
187.5
 23
312.5
 33
260.0
  0
3DFACE
  5
5ED
330
1F
100
AcDbEntity
  8
laje
100
AcDbFace
 10
250.0
 20
250.0
 30
260.0
 11
312.5
 21
250.0
 31
260.0
 12
312.5000000000002
 22
312.5
 32
260.0
 13
250.0
 23
312.5
 33
260.0
  0
3DFACE
  5
5EE
330
1F
100
AcDbEntity
  8
laje
100
AcDbFace
 10
312.5
 20
250.0
 30
260.0
 11
375.0
 21
250.0
 31
260.0
 12
375.0000000000002
 22
312.5
 32
260.0
 13
312.5
 23
312.5
 33
260.0
  0
3DFACE
  5
5EF
330
1F
100
AcDbEntity
  8
laje
100
AcDbFace
 10
375.0
 20
250.0
 30
260.0
 11
437.5
 21
250.0
 31
260.0
 12
437.5000000000001
 22
312.5
 32
260.0
 13
375.0
 23
312.5
 33
260.0
  0
3DFACE
  5
5F0
330
1F
100
AcDbEntity
  8
laje
100
AcDbFace
 10
437.5
 20
250.0
 30
260.0
 11
500.0
 21
250.0
 31
260.0
 12
500.0000000000001
 22
312.5
 32
260.0
 13
437.5
 23
312.5
 33
260.0
  0
3DFACE
  5
5F2
330
1F
100
AcDbEntity
  8
laje
100
AcDbFace
 10
0.0000000000000568
 20
312.5
 30
260.0
 11
62.50000000000006
 21
312.5
 31
260.0
 12
62.50000000000017
 22
375.0
 32
260.0
 13
0.0000000000000568
 23
375.0
 33
260.0
  0
3DFACE
  5
5F3
330
1F
100
AcDbEntity
  8
laje
100
AcDbFace
 10
62.50000000000006
 20
312.5
 30
260.0
 11
125.0
 21
312.5
 31
260.0
 12
125.0000000000001
 22
375.0
 32
260.0
 13
62.50000000000006
 23
375.0
 33
260.0
  0
3DFACE
  5
5F4
330
1F
100
AcDbEntity
  8
laje
100
AcDbFace
 10
125.0
 20
312.5
 30
260.0
 11
187.5
 21
312.5
 31
260.0
 12
187.5000000000001
 22
375.0
 32
260.0
 13
125.0
 23
375.0
 33
260.0
  0
3DFACE
  5
5F5
330
1F
100
AcDbEntity
  8
laje
100
AcDbFace
 10
187.5
 20
312.5
 30
260.0
 11
250.0
 21
312.5
 31
260.0
 12
250.0000000000002
 22
375.0
 32
260.0
 13
187.5
 23
375.0
 33
260.0
  0
3DFACE
  5
5F6
330
1F
100
AcDbEntity
  8
laje
100
AcDbFace
 10
250.0
 20
312.5
 30
260.0
 11
312.5
 21
312.5
 31
260.0
 12
312.5000000000002
 22
375.0
 32
260.0
 13
250.0
 23
375.0
 33
260.0
  0
3DFACE
  5
5F7
330
1F
100
AcDbEntity
  8
laje
100
AcDbFace
 10
312.5
 20
312.5
 30
260.0
 11
375.0
 21
312.5
 31
260.0
 12
375.0000000000002
 22
375.0
 32
260.0
 13
312.5
 23
375.0
 33
260.0
  0
3DFACE
  5
5F8
330
1F
100
AcDbEntity
  8
laje
100
AcDbFace
 10
375.0
 20
312.5
 30
260.0
 11
437.5
 21
312.5
 31
260.0
 12
437.5000000000001
 22
375.0
 32
260.0
 13
375.0
 23
375.0
 33
260.0
  0
3DFACE
  5
5F9
330
1F
100
AcDbEntity
  8
laje
100
AcDbFace
 10
437.5
 20
312.5
 30
260.0
 11
500.0
 21
312.5
 31
260.0
 12
500.0000000000001
 22
375.0
 32
260.0
 13
437.5
 23
375.0
 33
260.0
  0
3DFACE
  5
5FA
330
1F
100
AcDbEntity
  8
laje
100
AcDbFace
 10
0.0000000000000568
 20
375.0
 30
260.0
 11
62.50000000000006
 21
375.0
 31
260.0
 12
62.50000000000017
 22
437.5
 32
260.0
 13
0.0000000000000568
 23
437.5
 33
260.0
  0
3DFACE
  5
5FB
330
1F
100
AcDbEntity
  8
laje
100
AcDbFace
 10
62.50000000000006
 20
375.0
 30
260.0
 11
125.0
 21
375.0
 31
260.0
 12
125.0000000000001
 22
437.5
 32
260.0
 13
62.50000000000006
 23
437.5
 33
260.0
  0
3DFACE
  5
5FC
330
1F
100
AcDbEntity
  8
laje
100
AcDbFace
 10
125.0
 20
375.0
 30
260.0
 11
187.5
 21
375.0
 31
260.0
 12
187.5000000000001
 22
437.5
 32
260.0
 13
125.0
 23
437.5
 33
260.0
  0
3DFACE
  5
5FD
330
1F
100
AcDbEntity
  8
laje
100
AcDbFace
 10
187.5
 20
375.0
 30
260.0
 11
250.0
 21
375.0
 31
260.0
 12
250.0000000000002
 22
437.5
 32
260.0
 13
187.5
 23
437.5
 33
260.0
  0
3DFACE
  5
5FE
330
1F
100
AcDbEntity
  8
laje
100
AcDbFace
 10
250.0
 20
375.0
 30
260.0
 11
312.5
 21
375.0
 31
260.0
 12
312.5000000000002
 22
437.5
 32
260.0
 13
250.0
 23
437.5
 33
260.0
  0
3DFACE
  5
5FF
330
1F
100
AcDbEntity
  8
laje
100
AcDbFace
 10
312.5
 20
375.0
 30
260.0
 11
375.0
 21
375.0
 31
260.0
 12
375.0000000000002
 22
437.5
 32
260.0
 13
312.5
 23
437.5
 33
260.0
  0
3DFACE
  5
600
330
1F
100
AcDbEntity
  8
laje
100
AcDbFace
 10
375.0
 20
375.0
 30
260.0
 11
437.5
 21
375.0
 31
260.0
 12
437.5000000000001
 22
437.5
 32
260.0
 13
375.0
 23
437.5
 33
260.0
  0
3DFACE
  5
601
330
1F
100
AcDbEntity
  8
laje
100
AcDbFace
 10
437.5
 20
375.0
 30
260.0
 11
500.0
 21
375.0
 31
260.0
 12
500.0000000000001
 22
437.5
 32
260.0
 13
437.5
 23
437.5
 33
260.0
  0
3DFACE
  5
604
330
1F
100
AcDbEntity
  8
laje
100
AcDbFace
 10
0.0000000000000568
 20
437.5
 30
260.0
 11
62.50000000000006
 21
437.5
 31
260.0
 12
62.50000000000017
 22
500.0
 32
260.0
 13
0.0000000000000568
 23
500.0
 33
260.0
  0
3DFACE
  5
605
330
1F
100
AcDbEntity
  8
laje
100
AcDbFace
 10
62.50000000000006
 20
437.5
 30
260.0
 11
125.0
 21
437.5
 31
260.0
 12
125.0000000000001
 22
500.0
 32
260.0
 13
62.50000000000006
 23
500.0
 33
260.0
  0
3DFACE
  5
606
330
1F
100
AcDbEntity
  8
laje
100
AcDbFace
 10
125.0
 20
437.5
 30
260.0
 11
187.5
 21
437.5
 31
260.0
 12
187.5000000000001
 22
500.0
 32
260.0
 13
125.0
 23
500.0
 33
260.0
  0
3DFACE
  5
607
330
1F
100
AcDbEntity
  8
laje
100
AcDbFace
 10
187.5
 20
437.5
 30
260.0
 11
250.0
 21
437.5
 31
260.0
 12
250.0000000000002
 22
500.0
 32
260.0
 13
187.5
 23
500.0
 33
260.0
  0
3DFACE
  5
608
330
1F
100
AcDbEntity
  8
laje
100
AcDbFace
 10
250.0
 20
437.5
 30
260.0
 11
312.5
 21
437.5
 31
260.0
 12
312.5000000000002
 22
500.0
 32
260.0
 13
250.0
 23
500.0
 33
260.0
  0
3DFACE
  5
609
330
1F
100
AcDbEntity
  8
laje
100
AcDbFace
 10
312.5
 20
437.5
 30
260.0
 11
375.0
 21
437.5
 31
260.0
 12
375.0000000000002
 22
500.0
 32
260.0
 13
312.5
 23
500.0
 33
260.0
  0
3DFACE
  5
60A
330
1F
100
AcDbEntity
  8
laje
100
AcDbFace
 10
375.0
 20
437.5
 30
260.0
 11
437.5
 21
437.5
 31
260.0
 12
437.5000000000001
 22
500.0
 32
260.0
 13
375.0
 23
500.0
 33
260.0
  0
3DFACE
  5
60B
330
1F
100
AcDbEntity
  8
laje
100
AcDbFace
 10
437.5
 20
437.5
 30
260.0
 11
500.0
 21
437.5
 31
260.0
 12
500.0000000000001
 22
500.0
 32
260.0
 13
437.5
 23
500.0
 33
260.0
  0
ENDSEC
  0
SECTION
  2
OBJECTS
  0
DICTIONARY
  5
C
330
0
100
AcDbDictionary
281
     1
  3
ACAD_COLOR
350
6C
  3
ACAD_GROUP
350
D
  3
ACAD_LAYOUT
350
1A
  3
ACAD_MATERIAL
350
6B
  3
ACAD_MLEADERSTYLE
350
18A
  3
ACAD_MLINESTYLE
350
17
  3
ACAD_PLOTSETTINGS
350
19
  3
ACAD_PLOTSTYLENAME
350
E
  3
ACAD_SCALELIST
350
160
  3
ACAD_TABLESTYLE
350
92
  3
ACAD_VISUALSTYLE
350
649
  3
ACAD_WIPEOUT_VARS
350
148
  3
ACDB_RECOMPOSE_DATA
350
4CF
  3
AcDbVariableDictionary
350
59
  0
DICTIONARY
  5
65E
330
10
100
AcDbDictionary
280
     1
281
     1
  3
ADSK_XREC_LAYER_RECONCILED
360
65F
  0
DICTIONARY
  5
660
330
1E5
100
AcDbDictionary
280
     1
281
     1
  3
ADSK_XREC_LAYER_RECONCILED
360
661
  0
DICTIONARY
  5
662
330
1E9
100
AcDbDictionary
280
     1
281
     1
  3
ADSK_XREC_LAYER_RECONCILED
360
663
  0
DICTIONARY
  5
664
330
1EA
100
AcDbDictionary
280
     1
281
     1
  3
ADSK_XREC_LAYER_RECONCILED
360
665
  0
DICTIONARY
  5
666
330
1EF
100
AcDbDictionary
280
     1
281
     1
  3
ADSK_XREC_LAYER_RECONCILED
360
667
  0
DICTIONARY
  5
668
330
1F0
100
AcDbDictionary
280
     1
281
     1
  3
ADSK_XREC_LAYER_RECONCILED
360
669
  0
DICTIONARY
  5
6C
102
{ACAD_REACTORS
330
C
102
}
330
C
100
AcDbDictionary
281
     1
  0
DICTIONARY
  5
D
102
{ACAD_REACTORS
330
C
102
}
330
C
100
AcDbDictionary
281
     1
  0
DICTIONARY
  5
1A
102
{ACAD_REACTORS
330
C
102
}
330
C
100
AcDbDictionary
281
     1
  3
Layout1
350
74
  3
Layout2
350
13E
  3
Model
350
22
  0
DICTIONARY
  5
6B
102
{ACAD_REACTORS
330
C
102
}
330
C
100
AcDbDictionary
281
     1
  3
ByBlock
350
639
  3
ByLayer
350
631
  3
Global
350
641
  0
DICTIONARY
  5
18A
102
{ACAD_REACTORS
330
C
102
}
330
C
100
AcDbDictionary
281
     1
  3
Standard
350
18E
  0
DICTIONARY
  5
17
102
{ACAD_REACTORS
330
C
102
}
330
C
100
AcDbDictionary
281
     1
  3
Standard
350
18
  0
DICTIONARY
  5
19
102
{ACAD_REACTORS
330
C
102
}
330
C
100
AcDbDictionary
281
     1
  0
ACDBDICTIONARYWDFLT
  5
E
102
{ACAD_REACTORS
330
C
102
}
330
C
100
AcDbDictionary
281
     1
  3
Normal
350
F
100
AcDbDictionaryWithDefault
340
F
  0
DICTIONARY
  5
160
102
{ACAD_REACTORS
330
C
102
}
330
C
100
AcDbDictionary
281
     1
  3
A0
350
161
  3
A1
350
162
  3
A2
350
163
  3
A3
350
164
  3
A4
350
165
  3
A5
350
166
  3
A6
350
167
  3
A7
350
168
  3
A8
350
169
  3
A9
350
16A
  3
B0
350
16B
  3
B1
350
16C
  3
B2
350
16D
  3
B3
350
16E
  3
B4
350
16F
  3
B5
350
170
  3
B6
350
171
  3
B7
350
172
  3
B8
350
173
  3
B9
350
174
  3
C0
350
175
  3
C1
350
176
  3
C2
350
177
  3
C3
350
178
  3
C4
350
179
  3
C5
350
17A
  3
C6
350
17B
  3
C7
350
17C
  3
C8
350
17D
  3
C9
350
17E
  3
D0
350
17F
  3
D1
350
180
  3
D2
350
181
  0
DICTIONARY
  5
92
102
{ACAD_REACTORS
330
C
102
}
330
C
100
AcDbDictionary
281
     1
  3
Standard
350
93
  0
DICTIONARY
  5
649
102
{ACAD_REACTORS
330
C
102
}
330
C
100
AcDbDictionary
281
     1
  3
2dWireframe
350
64F
  3
3D Hidden
350
651
  3
3dWireframe
350
650
  3
Basic
350
64E
  3
Brighten
350
655
  3
ColorChange
350
659
  3
Conceptual
350
652
  3
Dim
350
654
  3
Facepattern
350
658
  3
Flat
350
64A
  3
FlatWithEdges
350
64B
  3
Gouraud
350
64C
  3
GouraudWithEdges
350
64D
  3
Linepattern
350
657
  3
Realistic
350
653
  3
Thicken
350
656
  0
WIPEOUTVARIABLES
  5
148
102
{ACAD_REACTORS
330
C
102
}
330
C
100
AcDbWipeoutVariables
 70
     1
  0
XRECORD
  5
4CF
102
{ACAD_REACTORS
330
C
102
}
330
C
100
AcDbXrecord
280
     1
 90
        1
330
93
  0
DICTIONARY
  5
59
102
{ACAD_REACTORS
330
C
102
}
330
C
100
AcDbDictionary
281
     1
  3
CANNOSCALE
350
189
  3
CMLEADERSTYLE
350
1B2
  3
CTABLESTYLE
350
15F
  3
HIDETEXT
350
63
  3
LAYEREVAL
350
66D
  3
LAYERNOTIFY
350
66E
  3
XCLIPFRAME
350
18F
  0
XRECORD
  5
65F
102
{ACAD_REACTORS
330
65E
102
}
330
65E
100
AcDbXrecord
280
     1
290
     1
  0
XRECORD
  5
661
102
{ACAD_REACTORS
330
660
102
}
330
660
100
AcDbXrecord
280
     1
290
     1
  0
XRECORD
  5
663
102
{ACAD_REACTORS
330
662
102
}
330
662
100
AcDbXrecord
280
     1
290
     1
  0
XRECORD
  5
665
102
{ACAD_REACTORS
330
664
102
}
330
664
100
AcDbXrecord
280
     1
290
     1
  0
XRECORD
  5
667
102
{ACAD_REACTORS
330
666
102
}
330
666
100
AcDbXrecord
280
     1
290
     1
  0
XRECORD
  5
669
102
{ACAD_REACTORS
330
668
102
}
330
668
100
AcDbXrecord
280
     1
290
     1
  0
LAYOUT
  5
74
102
{ACAD_REACTORS
330
1A
102
}
330
1A
100
AcDbPlotSettings
  1

  2
None
  4

  6

 40
0.0
 41
0.0
 42
0.0
 43
0.0
 44
0.0
 45
0.0
 46
0.0
 47
0.0
 48
0.0
 49
0.0
140
0.0
141
0.0
142
1.0
143
1.0
 70
   688
 72
     0
 73
     0
 74
     5
  7

 75
    16
147
1.0
 76
     0
 77
     2
 78
   300
148
0.0
149
0.0
100
AcDbLayout
  1
Layout1
 70
     1
 71
     1
 10
0.0
 20
0.0
 11
12.0
 21
9.0
 12
0.0
 22
0.0
 32
0.0
 14
1.000000000000000E+20
 24
1.000000000000000E+20
 34
1.000000000000000E+20
 15
-1.000000000000000E+20
 25
-1.000000000000000E+20
 35
-1.000000000000000E+20
146
0.0
 13
0.0
 23
0.0
 33
0.0
 16
1.0
 26
0.0
 36
0.0
 17
0.0
 27
1.0
 37
0.0
 76
     0
330
73
  0
LAYOUT
  5
13E
102
{ACAD_REACTORS
330
1A
102
}
330
1A
100
AcDbPlotSettings
  1

  2
None
  4

  6

 40
0.0
 41
0.0
 42
0.0
 43
0.0
 44
0.0
 45
0.0
 46
0.0
 47
0.0
 48
0.0
 49
0.0
140
0.0
141
0.0
142
1.0
143
1.0
 70
   688
 72
     0
 73
     0
 74
     5
  7

 75
    16
147
1.0
 76
     0
 77
     2
 78
   300
148
0.0
149
0.0
100
AcDbLayout
  1
Layout2
 70
     1
 71
     2
 10
0.0
 20
0.0
 11
12.0
 21
9.0
 12
0.0
 22
0.0
 32
0.0
 14
1.000000000000000E+20
 24
1.000000000000000E+20
 34
1.000000000000000E+20
 15
-1.000000000000000E+20
 25
-1.000000000000000E+20
 35
-1.000000000000000E+20
146
0.0
 13
0.0
 23
0.0
 33
0.0
 16
1.0
 26
0.0
 36
0.0
 17
0.0
 27
1.0
 37
0.0
 76
     0
330
13D
  0
LAYOUT
  5
22
102
{ACAD_REACTORS
330
1A
102
}
330
1A
100
AcDbPlotSettings
  1

  2
none_device
  4
ISO_A4_(210.00_x_297.00_MM)
  6

 40
7.5
 41
20.0
 42
7.5
 43
20.0
 44
210.0
 45
297.0
 46
11.54999923706054
 47
-13.65000009536743
 48
0.0
 49
0.0
140
0.0
141
0.0
142
1.0
143
14.17960388346258
 70
 11952
 72
     1
 73
     0
 74
     0
  7

 75
     0
147
0.0705238318516275
 76
     0
 77
     2
 78
   300
148
535.8812269249953
149
-158.4225893688214
100
AcDbLayout
  1
Model
 70
     1
 71
     0
 10
0.0
 20
0.0
 11
420.0
 21
297.0
 12
0.0
 22
0.0
 32
0.0
 14
0.0
 24
0.0
 34
0.0
 15
420.0
 25
297.0
 35
0.0
146
0.0
 13
0.0
 23
0.0
 33
0.0
 16
1.0
 26
0.0
 36
0.0
 17
0.0
 27
1.0
 37
0.0
 76
     0
330
1F
331
15E
1001
ACAD_PSEXT
1000
None
1000
None
1000
Not applicable
1000
The layout will not be plotted unless a new plotter configuration name is selected.
1070
     0
  0
MATERIAL
  5
639
102
{ACAD_XDICTIONARY
360
63A
102
}
102
{ACAD_REACTORS
330
6B
102
}
330
6B
100
AcDbMaterial
  1
ByBlock
 72
     0
 43
0.0008202099737533
 43
0.0
 43
0.0
 43
0.0
 43
0.0
 43
0.0008202099737533
 43
0.0
 43
0.0
 43
0.0
 43
0.0
 43
1.0
 43
0.0
 43
0.0
 43
0.0
 43
0.0
 43
1.0
 77
     0
 47
0.0008202099737533
 47
0.0
 47
0.0
 47
0.0
 47
0.0
 47
0.0008202099737533
 47
0.0
 47
0.0
 47
0.0
 47
0.0
 47
1.0
 47
0.0
 47
0.0
 47
0.0
 47
0.0
 47
1.0
171
     0
 49
0.0008202099737533
 49
0.0
 49
0.0
 49
0.0
 49
0.0
 49
0.0008202099737533
 49
0.0
 49
0.0
 49
0.0
 49
0.0
 49
1.0
 49
0.0
 49
0.0
 49
0.0
 49
0.0
 49
1.0
175
     0
142
0.0008202099737533
142
0.0
142
0.0
142
0.0
142
0.0
142
0.0008202099737533
142
0.0
142
0.0
142
0.0
142
0.0
142
1.0
142
0.0
142
0.0
142
0.0
142
0.0
142
1.0
179
     0
144
0.0008202099737533
144
0.0
144
0.0
144
0.0
144
0.0
144
0.0008202099737533
144
0.0
144
0.0
144
0.0
144
0.0
144
1.0
144
0.0
144
0.0
144
0.0
144
0.0
144
1.0
147
0.0008202099737533
147
0.0
147
0.0
147
0.0
147
0.0
147
0.0008202099737533
147
0.0
147
0.0
147
0.0
147
0.0
147
1.0
147
0.0
147
0.0
147
0.0
147
0.0
147
1.0
  0
MATERIAL
  5
631
102
{ACAD_XDICTIONARY
360
632
102
}
102
{ACAD_REACTORS
330
6B
102
}
330
6B
100
AcDbMaterial
  1
ByLayer
 72
     0
 43
0.0008202099737533
 43
0.0
 43
0.0
 43
0.0
 43
0.0
 43
0.0008202099737533
 43
0.0
 43
0.0
 43
0.0
 43
0.0
 43
1.0
 43
0.0
 43
0.0
 43
0.0
 43
0.0
 43
1.0
 77
     0
 47
0.0008202099737533
 47
0.0
 47
0.0
 47
0.0
 47
0.0
 47
0.0008202099737533
 47
0.0
 47
0.0
 47
0.0
 47
0.0
 47
1.0
 47
0.0
 47
0.0
 47
0.0
 47
0.0
 47
1.0
171
     0
 49
0.0008202099737533
 49
0.0
 49
0.0
 49
0.0
 49
0.0
 49
0.0008202099737533
 49
0.0
 49
0.0
 49
0.0
 49
0.0
 49
1.0
 49
0.0
 49
0.0
 49
0.0
 49
0.0
 49
1.0
175
     0
142
0.0008202099737533
142
0.0
142
0.0
142
0.0
142
0.0
142
0.0008202099737533
142
0.0
142
0.0
142
0.0
142
0.0
142
1.0
142
0.0
142
0.0
142
0.0
142
0.0
142
1.0
179
     0
144
0.0008202099737533
144
0.0
144
0.0
144
0.0
144
0.0
144
0.0008202099737533
144
0.0
144
0.0
144
0.0
144
0.0
144
1.0
144
0.0
144
0.0
144
0.0
144
0.0
144
1.0
147
0.0008202099737533
147
0.0
147
0.0
147
0.0
147
0.0
147
0.0008202099737533
147
0.0
147
0.0
147
0.0
147
0.0
147
1.0
147
0.0
147
0.0
147
0.0
147
0.0
147
1.0
  0
MATERIAL
  5
641
102
{ACAD_XDICTIONARY
360
642
102
}
102
{ACAD_REACTORS
330
6B
102
}
330
6B
100
AcDbMaterial
  1
Global
 72
     0
 43
0.0008202099737533
 43
0.0
 43
0.0
 43
0.0
 43
0.0
 43
0.0008202099737533
 43
0.0
 43
0.0
 43
0.0
 43
0.0
 43
1.0
 43
0.0
 43
0.0
 43
0.0
 43
0.0
 43
1.0
 77
     0
 47
0.0008202099737533
 47
0.0
 47
0.0
 47
0.0
 47
0.0
 47
0.0008202099737533
 47
0.0
 47
0.0
 47
0.0
 47
0.0
 47
1.0
 47
0.0
 47
0.0
 47
0.0
 47
0.0
 47
1.0
171
     0
 49
0.0008202099737533
 49
0.0
 49
0.0
 49
0.0
 49
0.0
 49
0.0008202099737533
 49
0.0
 49
0.0
 49
0.0
 49
0.0
 49
1.0
 49
0.0
 49
0.0
 49
0.0
 49
0.0
 49
1.0
175
     0
142
0.0008202099737533
142
0.0
142
0.0
142
0.0
142
0.0
142
0.0008202099737533
142
0.0
142
0.0
142
0.0
142
0.0
142
1.0
142
0.0
142
0.0
142
0.0
142
0.0
142
1.0
179
     0
144
0.0008202099737533
144
0.0
144
0.0
144
0.0
144
0.0
144
0.0008202099737533
144
0.0
144
0.0
144
0.0
144
0.0
144
1.0
144
0.0
144
0.0
144
0.0
144
0.0
144
1.0
147
0.0008202099737533
147
0.0
147
0.0
147
0.0
147
0.0
147
0.0008202099737533
147
0.0
147
0.0
147
0.0
147
0.0
147
1.0
147
0.0
147
0.0
147
0.0
147
0.0
147
1.0
  0
MLEADERSTYLE
  5
18E
102
{ACAD_REACTORS
330
18A
102
}
330
18A
100
AcDbMLeaderStyle
170
     2
171
     1
172
     0
 90
        2
 40
0.0
 41
0.0
173
     1
 91
-1056964608
340
15
 92
       -2
290
     1
 42
2.0
291
     1
 43
8.0
  3
Standard
 44
4.0
300

342
11
174
     1
178
     6
175
     1
176
     0
 93
-1056964608
 45
4.0
292
     0
297
     0
 46
4.0
 94
-1056964608
 47
1.0
 49
1.0
140
1.0
293
     1
141
0.0
294
     1
177
     0
142
1.0
295
     0
296
     0
143
3.75
1001
ACAD_MLEADERVER
1070
     2
  0
MLINESTYLE
  5
18
102
{ACAD_REACTORS
330
17
102
}
330
17
100
AcDbMlineStyle
  2
STANDARD
 70
     0
  3

 62
    18
 51
90.0
 52
90.0
 71
     2
 49
0.5
 62
   256
  6
BYLAYER
 49
-0.5
 62
   256
  6
BYLAYER
  0
ACDBPLACEHOLDER
  5
F
102
{ACAD_REACTORS
330
E
102
}
330
E
  0
SCALE
  5
161
102
{ACAD_REACTORS
330
160
102
}
330
160
100
AcDbScale
 70
     0
300
1:1
140
1.0
141
1.0
290
     1
  0
SCALE
  5
162
102
{ACAD_REACTORS
330
160
102
}
330
160
100
AcDbScale
 70
     0
300
1:2
140
1.0
141
2.0
290
     0
  0
SCALE
  5
163
102
{ACAD_REACTORS
330
160
102
}
330
160
100
AcDbScale
 70
     0
300
1:4
140
1.0
141
4.0
290
     0
  0
SCALE
  5
164
102
{ACAD_REACTORS
330
160
102
}
330
160
100
AcDbScale
 70
     0
300
1:5
140
1.0
141
5.0
290
     0
  0
SCALE
  5
165
102
{ACAD_REACTORS
330
160
102
}
330
160
100
AcDbScale
 70
     0
300
1:8
140
1.0
141
8.0
290
     0
  0
SCALE
  5
166
102
{ACAD_REACTORS
330
160
102
}
330
160
100
AcDbScale
 70
     0
300
1:10
140
1.0
141
10.0
290
     0
  0
SCALE
  5
167
102
{ACAD_REACTORS
330
160
102
}
330
160
100
AcDbScale
 70
     0
300
1:16
140
1.0
141
16.0
290
     0
  0
SCALE
  5
168
102
{ACAD_REACTORS
330
160
102
}
330
160
100
AcDbScale
 70
     0
300
1:20
140
1.0
141
20.0
290
     0
  0
SCALE
  5
169
102
{ACAD_REACTORS
330
160
102
}
330
160
100
AcDbScale
 70
     0
300
1:30
140
1.0
141
30.0
290
     0
  0
SCALE
  5
16A
102
{ACAD_REACTORS
330
160
102
}
330
160
100
AcDbScale
 70
     0
300
1:40
140
1.0
141
40.0
290
     0
  0
SCALE
  5
16B
102
{ACAD_REACTORS
330
160
102
}
330
160
100
AcDbScale
 70
     0
300
1:50
140
1.0
141
50.0
290
     0
  0
SCALE
  5
16C
102
{ACAD_REACTORS
330
160
102
}
330
160
100
AcDbScale
 70
     0
300
1:100
140
1.0
141
100.0
290
     0
  0
SCALE
  5
16D
102
{ACAD_REACTORS
330
160
102
}
330
160
100
AcDbScale
 70
     0
300
2:1
140
2.0
141
1.0
290
     0
  0
SCALE
  5
16E
102
{ACAD_REACTORS
330
160
102
}
330
160
100
AcDbScale
 70
     0
300
4:1
140
4.0
141
1.0
290
     0
  0
SCALE
  5
16F
102
{ACAD_REACTORS
330
160
102
}
330
160
100
AcDbScale
 70
     0
300
8:1
140
8.0
141
1.0
290
     0
  0
SCALE
  5
170
102
{ACAD_REACTORS
330
160
102
}
330
160
100
AcDbScale
 70
     0
300
10:1
140
10.0
141
1.0
290
     0
  0
SCALE
  5
171
102
{ACAD_REACTORS
330
160
102
}
330
160
100
AcDbScale
 70
     0
300
100:1
140
100.0
141
1.0
290
     0
  0
SCALE
  5
172
102
{ACAD_REACTORS
330
160
102
}
330
160
100
AcDbScale
 70
     0
300
1/128" = 1'-0"
140
0.0078125
141
12.0
290
     0
  0
SCALE
  5
173
102
{ACAD_REACTORS
330
160
102
}
330
160
100
AcDbScale
 70
     0
300
1/64" = 1'-0"
140
0.015625
141
12.0
290
     0
  0
SCALE
  5
174
102
{ACAD_REACTORS
330
160
102
}
330
160
100
AcDbScale
 70
     0
300
1/32" = 1'-0"
140
0.03125
141
12.0
290
     0
  0
SCALE
  5
175
102
{ACAD_REACTORS
330
160
102
}
330
160
100
AcDbScale
 70
     0
300
1/16" = 1'-0"
140
0.0625
141
12.0
290
     0
  0
SCALE
  5
176
102
{ACAD_REACTORS
330
160
102
}
330
160
100
AcDbScale
 70
     0
300
3/32" = 1'-0"
140
0.09375
141
12.0
290
     0
  0
SCALE
  5
177
102
{ACAD_REACTORS
330
160
102
}
330
160
100
AcDbScale
 70
     0
300
1/8" = 1'-0"
140
0.125
141
12.0
290
     0
  0
SCALE
  5
178
102
{ACAD_REACTORS
330
160
102
}
330
160
100
AcDbScale
 70
     0
300
3/16" = 1'-0"
140
0.1875
141
12.0
290
     0
  0
SCALE
  5
179
102
{ACAD_REACTORS
330
160
102
}
330
160
100
AcDbScale
 70
     0
300
1/4" = 1'-0"
140
0.25
141
12.0
290
     0
  0
SCALE
  5
17A
102
{ACAD_REACTORS
330
160
102
}
330
160
100
AcDbScale
 70
     0
300
3/8" = 1'-0"
140
0.375
141
12.0
290
     0
  0
SCALE
  5
17B
102
{ACAD_REACTORS
330
160
102
}
330
160
100
AcDbScale
 70
     0
300
1/2" = 1'-0"
140
0.5
141
12.0
290
     0
  0
SCALE
  5
17C
102
{ACAD_REACTORS
330
160
102
}
330
160
100
AcDbScale
 70
     0
300
3/4" = 1'-0"
140
0.75
141
12.0
290
     0
  0
SCALE
  5
17D
102
{ACAD_REACTORS
330
160
102
}
330
160
100
AcDbScale
 70
     0
300
1" = 1'-0"
140
1.0
141
12.0
290
     0
  0
SCALE
  5
17E
102
{ACAD_REACTORS
330
160
102
}
330
160
100
AcDbScale
 70
     0
300
1-1/2" = 1'-0"
140
1.5
141
12.0
290
     0
  0
SCALE
  5
17F
102
{ACAD_REACTORS
330
160
102
}
330
160
100
AcDbScale
 70
     0
300
3" = 1'-0"
140
3.0
141
12.0
290
     0
  0
SCALE
  5
180
102
{ACAD_REACTORS
330
160
102
}
330
160
100
AcDbScale
 70
     0
300
6" = 1'-0"
140
6.0
141
12.0
290
     0
  0
SCALE
  5
181
102
{ACAD_REACTORS
330
160
102
}
330
160
100
AcDbScale
 70
     0
300
1'-0" = 1'-0"
140
12.0
141
12.0
290
     0
  0
TABLESTYLE
  5
93
102
{ACAD_XDICTIONARY
360
4CD
102
}
102
{ACAD_REACTORS
330
92
102
}
330
92
100
AcDbTableStyle
  3
Standard
 70
     0
 71
     0
 40
1.5
 41
1.5
280
     0
281
     0
  7
Standard
140
4.5
170
     2
 62
     0
 63
     7
283
     0
 90
      512
 91
        0
  1

274
    -2
284
     1
 64
     0
275
    -2
285
     1
 65
     0
276
    -2
286
     1
 66
     0
277
    -2
287
     1
 67
     0
278
    -2
288
     1
 68
     0
279
    -2
289
     1
 69
     0
  7
Standard
140
6.0
170
     5
 62
     0
 63
     7
283
     0
 90
      512
 91
        0
  1

274
    -2
284
     1
 64
     0
275
    -2
285
     1
 65
     0
276
    -2
286
     1
 66
     0
277
    -2
287
     1
 67
     0
278
    -2
288
     1
 68
     0
279
    -2
289
     1
 69
     0
  7
Standard
140
4.5
170
     5
 62
     0
 63
     7
283
     0
 90
      512
 91
        0
  1

274
    -2
284
     1
 64
     0
275
    -2
285
     1
 65
     0
276
    -2
286
     1
 66
     0
277
    -2
287
     1
 67
     0
278
    -2
288
     1
 68
     0
279
    -2
289
     1
 69
     0
  0
VISUALSTYLE
  5
64F
102
{ACAD_REACTORS
330
649
102
}
330
649
100
AcDbVisualStyle
  2
2dWireframe
 70
     4
 71
     0
 72
     2
 73
     0
 90
        0
 40
-0.6
 41
-30.0
 62
     5
 63
     7
421
 16777215
 74
     1
 91
        4
 64
     7
 65
   257
 75
     1
175
     1
 42
1.0
 92
        0
 66
   257
 43
1.0
 76
     1
 77
     6
 78
     2
 67
     7
 79
     5
170
     0
171
     0
290
     0
174
     0
 93
        1
 44
0.0
173
     0
291
     0
 45
0.0
  0
VISUALSTYLE
  5
651
102
{ACAD_REACTORS
330
649
102
}
330
649
100
AcDbVisualStyle
  2
3D Hidden
 70
     6
 71
     1
 72
     2
 73
     2
 90
        0
 40
-0.6
 41
-30.0
 62
     5
 63
     7
421
 16777215
 74
     2
 91
        2
 64
     7
 65
   257
 75
     2
175
     1
 42
40.0
 92
        0
 66
   257
 43
1.0
 76
     1
 77
     6
 78
     2
 67
     7
 79
     3
170
     0
171
     0
290
     0
174
     0
 93
        1
 44
0.0
173
     0
291
     0
 45
0.0
  0
VISUALSTYLE
  5
650
102
{ACAD_REACTORS
330
649
102
}
330
649
100
AcDbVisualStyle
  2
3dWireframe
 70
     5
 71
     0
 72
     2
 73
     0
 90
        0
 40
-0.6
 41
-30.0
 62
     5
 63
     7
421
 16777215
 74
     1
 91
        4
 64
     7
 65
   257
 75
     1
175
     1
 42
1.0
 92
        0
 66
   257
 43
1.0
 76
     1
 77
     6
 78
     2
 67
     7
 79
     5
170
     0
171
     0
290
     0
174
     0
 93
        1
 44
0.0
173
     0
291
     0
 45
0.0
  0
VISUALSTYLE
  5
64E
102
{ACAD_REACTORS
330
649
102
}
330
649
100
AcDbVisualStyle
  2
Basic
 70
     7
 71
     1
 72
     0
 73
     1
 90
        0
 40
-0.6
 41
-30.0
 62
     5
 63
     7
421
 16777215
 74
     0
 91
        4
 64
     7
 65
   257
 75
     1
175
     1
 42
1.0
 92
        8
 66
     7
 43
1.0
 76
     1
 77
     6
 78
     2
 67
     7
 79
     5
170
     0
171
     0
290
     0
174
     0
 93
        1
 44
0.0
173
     0
291
     1
 45
0.0
  0
VISUALSTYLE
  5
655
102
{ACAD_REACTORS
330
649
102
}
330
649
100
AcDbVisualStyle
  2
Brighten
 70
    12
 71
     2
 72
     2
 73
     0
 90
        0
 40
-0.6
 41
-30.0
 62
     5
 63
     7
421
 16777215
 74
     1
 91
        4
 64
     7
 65
   257
 75
     1
175
     1
 42
1.0
 92
        8
 66
     7
 43
1.0
 76
     1
 77
     6
 78
     2
 67
     7
 79
     5
170
     0
171
     0
290
     0
174
     0
 93
        1
 44
50.0
173
     0
291
     1
 45
0.0
  0
VISUALSTYLE
  5
659
102
{ACAD_REACTORS
330
649
102
}
330
649
100
AcDbVisualStyle
  2
ColorChange
 70
    16
 71
     2
 72
     2
 73
     3
 90
        0
 40
-0.6
 41
-30.0
 62
     5
 63
     8
421
  8421504
 74
     1
 91
        4
 64
     7
 65
   257
 75
     1
175
     1
 42
1.0
 92
        8
 66
     8
424
  8421504
 43
1.0
 76
     1
 77
     6
 78
     2
 67
     7
 79
     5
170
     0
171
     0
290
     0
174
     0
 93
        1
 44
0.0
173
     0
291
     1
 45
0.0
  0
VISUALSTYLE
  5
652
102
{ACAD_REACTORS
330
649
102
}
330
649
100
AcDbVisualStyle
  2
Conceptual
 70
     9
 71
     3
 72
     2
 73
     0
 90
        0
 40
-0.6
 41
-30.0
 62
     5
 63
     7
421
 16777215
 74
     2
 91
        2
 64
     7
 65
   257
 75
     1
175
     1
 42
40.0
 92
        8
 66
     7
 43
1.0
 76
     1
 77
     6
 78
     2
 67
     7
 79
     3
170
     0
171
     0
290
     0
174
     0
 93
        1
 44
0.0
173
     0
291
     0
 45
0.0
  0
VISUALSTYLE
  5
654
102
{ACAD_REACTORS
330
649
102
}
330
649
100
AcDbVisualStyle
  2
Dim
 70
    11
 71
     2
 72
     2
 73
     0
 90
        0
 40
-0.6
 41
-30.0
 62
     5
 63
     7
421
 16777215
 74
     1
 91
        4
 64
     7
 65
   257
 75
     1
175
     1
 42
1.0
 92
        8
 66
     7
 43
1.0
 76
     1
 77
     6
 78
     2
 67
     7
 79
     5
170
     0
171
     0
290
     0
174
     0
 93
        1
 44
-50.0
173
     0
291
     1
 45
0.0
  0
VISUALSTYLE
  5
658
102
{ACAD_REACTORS
330
649
102
}
330
649
100
AcDbVisualStyle
  2
Facepattern
 70
    15
 71
     2
 72
     2
 73
     0
 90
        0
 40
-0.6
 41
-30.0
 62
     5
 63
     7
421
 16777215
 74
     1
 91
        4
 64
     7
 65
   257
 75
     1
175
     1
 42
1.0
 92
        8
 66
     7
 43
1.0
 76
     1
 77
     6
 78
     2
 67
     7
 79
     5
170
     0
171
     0
290
     0
174
     0
 93
        1
 44
0.0
173
     0
291
     1
 45
0.0
  0
VISUALSTYLE
  5
64A
102
{ACAD_REACTORS
330
649
102
}
330
649
100
AcDbVisualStyle
  2
Flat
 70
     0
 71
     2
 72
     1
 73
     1
 90
        2
 40
-0.6
 41
30.0
 62
     5
 63
     7
421
 16777215
 74
     0
 91
        4
 64
     7
 65
   257
 75
     1
175
     1
 42
1.0
 92
        8
 66
     7
 43
1.0
 76
     1
 77
     6
 78
     2
 67
     7
 79
     5
170
     0
171
     0
290
     0
174
     0
 93
       13
 44
0.0
173
     0
291
     1
 45
0.0
  0
VISUALSTYLE
  5
64B
102
{ACAD_REACTORS
330
649
102
}
330
649
100
AcDbVisualStyle
  2
FlatWithEdges
 70
     1
 71
     2
 72
     1
 73
     1
 90
        2
 40
-0.6
 41
30.0
 62
     5
 63
     7
421
 16777215
 74
     1
 91
        4
 64
     7
 65
   257
 75
     1
175
     1
 42
1.0
 92
        0
 66
   257
 43
1.0
 76
     1
 77
     6
 78
     2
 67
     7
 79
     5
170
     0
171
     0
290
     0
174
     0
 93
       13
 44
0.0
173
     0
291
     1
 45
0.0
  0
VISUALSTYLE
  5
64C
102
{ACAD_REACTORS
330
649
102
}
330
649
100
AcDbVisualStyle
  2
Gouraud
 70
     2
 71
     2
 72
     2
 73
     1
 90
        2
 40
-0.6
 41
30.0
 62
     5
 63
     7
421
 16777215
 74
     0
 91
        4
 64
     7
 65
   257
 75
     1
175
     1
 42
1.0
 92
        0
 66
     7
 43
1.0
 76
     1
 77
     6
 78
     2
 67
     7
 79
     5
170
     0
171
     0
290
     0
174
     0
 93
       13
 44
0.0
173
     0
291
     1
 45
0.0
  0
VISUALSTYLE
  5
64D
102
{ACAD_REACTORS
330
649
102
}
330
649
100
AcDbVisualStyle
  2
GouraudWithEdges
 70
     3
 71
     2
 72
     2
 73
     1
 90
        2
 40
-0.6
 41
30.0
 62
     5
 63
     7
421
 16777215
 74
     1
 91
        4
 64
     7
 65
   257
 75
     1
175
     1
 42
1.0
 92
        0
 66
   257
 43
1.0
 76
     1
 77
     6
 78
     2
 67
     7
 79
     5
170
     0
171
     0
290
     0
174
     0
 93
       13
 44
0.0
173
     0
291
     1
 45
0.0
  0
VISUALSTYLE
  5
657
102
{ACAD_REACTORS
330
649
102
}
330
649
100
AcDbVisualStyle
  2
Linepattern
 70
    14
 71
     2
 72
     2
 73
     0
 90
        0
 40
-0.6
 41
-30.0
 62
     5
 63
     7
421
 16777215
 74
     1
 91
        4
 64
     7
 65
   257
 75
     7
175
     7
 42
1.0
 92
        8
 66
     7
 43
1.0
 76
     1
 77
     6
 78
     2
 67
     7
 79
     5
170
     0
171
     0
290
     0
174
     0
 93
        1
 44
0.0
173
     0
291
     1
 45
0.0
  0
VISUALSTYLE
  5
653
102
{ACAD_REACTORS
330
649
102
}
330
649
100
AcDbVisualStyle
  2
Realistic
 70
     8
 71
     2
 72
     2
 73
     0
 90
        0
 40
-0.6
 41
-30.0
 62
     5
 63
     7
421
 16777215
 74
     1
 91
        0
 64
     7
 65
   257
 75
     1
175
     1
 42
1.0
 92
        8
 66
     8
424
  7895160
 43
1.0
 76
     1
 77
     6
 78
     2
 67
     7
 79
     5
170
     0
171
     0
290
     0
174
     0
 93
       13
 44
0.0
173
     0
291
     0
 45
0.0
  0
VISUALSTYLE
  5
656
102
{ACAD_REACTORS
330
649
102
}
330
649
100
AcDbVisualStyle
  2
Thicken
 70
    13
 71
     2
 72
     2
 73
     0
 90
        0
 40
-0.6
 41
-30.0
 62
     5
 63
     7
421
 16777215
 74
     1
 91
        4
 64
     7
 65
   257
 75
     1
175
     1
 42
1.0
 92
       12
 66
     7
 43
1.0
 76
     1
 77
     6
 78
     2
 67
     7
 79
     5
170
     0
171
     0
290
     0
174
     0
 93
        1
 44
0.0
173
     0
291
     1
 45
0.0
  0
DICTIONARYVAR
  5
189
102
{ACAD_REACTORS
330
59
102
}
330
59
100
DictionaryVariables
280
     0
  1
1:1
  0
DICTIONARYVAR
  5
1B2
102
{ACAD_REACTORS
330
59
102
}
330
59
100
DictionaryVariables
280
     0
  1
STANDARD
  0
DICTIONARYVAR
  5
15F
102
{ACAD_REACTORS
330
59
102
}
330
59
100
DictionaryVariables
280
     0
  1
STANDARD
  0
DICTIONARYVAR
  5
63
102
{ACAD_REACTORS
330
59
102
}
330
59
100
DictionaryVariables
280
     0
  1
1
  0
DICTIONARYVAR
  5
66D
102
{ACAD_REACTORS
330
59
102
}
330
59
100
DictionaryVariables
280
     0
  1
1
  0
DICTIONARYVAR
  5
66E
102
{ACAD_REACTORS
330
59
102
}
330
59
100
DictionaryVariables
280
     0
  1
15
  0
DICTIONARYVAR
  5
18F
102
{ACAD_REACTORS
330
59
102
}
330
59
100
DictionaryVariables
280
     0
  1
0
  0
DICTIONARY
  5
63A
330
639
100
AcDbDictionary
280
     1
281
     1
  3
BUMPTILE
360
63C
  3
DIFFUSETILE
360
63B
  3
OPACITYTILE
360
63F
  3
REFLECTIONTILE
360
63E
  3
REFRACTIONTILE
360
640
  3
SPECULARTILE
360
63D
  0
DICTIONARY
  5
632
330
631
100
AcDbDictionary
280
     1
281
     1
  3
BUMPTILE
360
634
  3
DIFFUSETILE
360
633
  3
OPACITYTILE
360
637
  3
REFLECTIONTILE
360
636
  3
REFRACTIONTILE
360
638
  3
SPECULARTILE
360
635
  0
DICTIONARY
  5
642
330
641
100
AcDbDictionary
280
     1
281
     1
  3
BUMPTILE
360
644
  3
DIFFUSETILE
360
643
  3
OPACITYTILE
360
647
  3
REFLECTIONTILE
360
646
  3
REFRACTIONTILE
360
648
  3
SPECULARTILE
360
645
  0
DICTIONARY
  5
4CD
330
93
100
AcDbDictionary
280
     1
281
     1
  3
ACAD_ROUNDTRIP_2008_TABLESTYLE_CELLSTYLEMAP
360
66F
  0
XRECORD
  5
63C
102
{ACAD_REACTORS
330
63A
102
}
330
63A
100
AcDbXrecord
280
     1
270
     1
271
     1
  0
XRECORD
  5
63B
102
{ACAD_REACTORS
330
63A
102
}
330
63A
100
AcDbXrecord
280
     1
270
     1
271
     1
  0
XRECORD
  5
63F
102
{ACAD_REACTORS
330
63A
102
}
330
63A
100
AcDbXrecord
280
     1
270
     1
271
     1
  0
XRECORD
  5
63E
102
{ACAD_REACTORS
330
63A
102
}
330
63A
100
AcDbXrecord
280
     1
270
     1
271
     1
  0
XRECORD
  5
640
102
{ACAD_REACTORS
330
63A
102
}
330
63A
100
AcDbXrecord
280
     1
270
     1
271
     1
  0
XRECORD
  5
63D
102
{ACAD_REACTORS
330
63A
102
}
330
63A
100
AcDbXrecord
280
     1
270
     1
271
     1
  0
XRECORD
  5
634
102
{ACAD_REACTORS
330
632
102
}
330
632
100
AcDbXrecord
280
     1
270
     1
271
     1
  0
XRECORD
  5
633
102
{ACAD_REACTORS
330
632
102
}
330
632
100
AcDbXrecord
280
     1
270
     1
271
     1
  0
XRECORD
  5
637
102
{ACAD_REACTORS
330
632
102
}
330
632
100
AcDbXrecord
280
     1
270
     1
271
     1
  0
XRECORD
  5
636
102
{ACAD_REACTORS
330
632
102
}
330
632
100
AcDbXrecord
280
     1
270
     1
271
     1
  0
XRECORD
  5
638
102
{ACAD_REACTORS
330
632
102
}
330
632
100
AcDbXrecord
280
     1
270
     1
271
     1
  0
XRECORD
  5
635
102
{ACAD_REACTORS
330
632
102
}
330
632
100
AcDbXrecord
280
     1
270
     1
271
     1
  0
XRECORD
  5
644
102
{ACAD_REACTORS
330
642
102
}
330
642
100
AcDbXrecord
280
     1
270
     1
271
     1
  0
XRECORD
  5
643
102
{ACAD_REACTORS
330
642
102
}
330
642
100
AcDbXrecord
280
     1
270
     1
271
     1
  0
XRECORD
  5
647
102
{ACAD_REACTORS
330
642
102
}
330
642
100
AcDbXrecord
280
     1
270
     1
271
     1
  0
XRECORD
  5
646
102
{ACAD_REACTORS
330
642
102
}
330
642
100
AcDbXrecord
280
     1
270
     1
271
     1
  0
XRECORD
  5
648
102
{ACAD_REACTORS
330
642
102
}
330
642
100
AcDbXrecord
280
     1
270
     1
271
     1
  0
XRECORD
  5
645
102
{ACAD_REACTORS
330
642
102
}
330
642
100
AcDbXrecord
280
     1
270
     1
271
     1
  0
CELLSTYLEMAP
  5
66F
102
{ACAD_REACTORS
330
4CD
102
}
330
4CD
100
AcDbCellStyleMap
 90
        3
300
CELLSTYLE
  1
TABLEFORMAT_BEGIN
 90
        5
170
     1
 91
        0
 92
    32768
 62
   257
 93
        1
300
CONTENTFORMAT
  1
CONTENTFORMAT_BEGIN
 90
        0
 91
        0
 92
      512
 93
        0
300

 40
0.0
140
1.0
 94
        5
 62
     0
340
11
144
6.0
309
CONTENTFORMAT_END
171
     1
301
MARGIN
  1
CELLMARGIN_BEGIN
 40
1.5
 40
1.5
 40
1.5
 40
1.5
 40
4.5
 40
4.5
309
CELLMARGIN_END
 94
        6
 95
        1
302
GRIDFORMAT
  1
GRIDFORMAT_BEGIN
 90
        0
 91
        1
 62
     0
 92
       -2
340
14
 93
        0
 40
1.125
309
GRIDFORMAT_END
 95
        2
302
GRIDFORMAT
  1
GRIDFORMAT_BEGIN
 90
        0
 91
        1
 62
     0
 92
       -2
340
14
 93
        0
 40
1.125
309
GRIDFORMAT_END
 95
        4
302
GRIDFORMAT
  1
GRIDFORMAT_BEGIN
 90
        0
 91
        1
 62
     0
 92
       -2
340
14
 93
        0
 40
1.125
309
GRIDFORMAT_END
 95
        8
302
GRIDFORMAT
  1
GRIDFORMAT_BEGIN
 90
        0
 91
        1
 62
     0
 92
       -2
340
14
 93
        0
 40
1.125
309
GRIDFORMAT_END
 95
       16
302
GRIDFORMAT
  1
GRIDFORMAT_BEGIN
 90
        0
 91
        1
 62
     0
 92
       -2
340
14
 93
        0
 40
1.125
309
GRIDFORMAT_END
 95
       32
302
GRIDFORMAT
  1
GRIDFORMAT_BEGIN
 90
        0
 91
        1
 62
     0
 92
       -2
340
14
 93
        0
 40
1.125
309
GRIDFORMAT_END
309
TABLEFORMAT_END
  1
CELLSTYLE_BEGIN
 90
        1
 91
        1
300
_TITLE
309
CELLSTYLE_END
300
CELLSTYLE
  1
TABLEFORMAT_BEGIN
 90
        5
170
     1
 91
        0
 92
        0
 62
   257
 93
        1
300
CONTENTFORMAT
  1
CONTENTFORMAT_BEGIN
 90
        0
 91
        0
 92
      512
 93
        0
300

 40
0.0
140
1.0
 94
        5
 62
     0
340
11
144
4.5
309
CONTENTFORMAT_END
171
     1
301
MARGIN
  1
CELLMARGIN_BEGIN
 40
1.5
 40
1.5
 40
1.5
 40
1.5
 40
4.5
 40
4.5
309
CELLMARGIN_END
 94
        6
 95
        1
302
GRIDFORMAT
  1
GRIDFORMAT_BEGIN
 90
        0
 91
        1
 62
     0
 92
       -2
340
14
 93
        0
 40
1.125
309
GRIDFORMAT_END
 95
        2
302
GRIDFORMAT
  1
GRIDFORMAT_BEGIN
 90
        0
 91
        1
 62
     0
 92
       -2
340
14
 93
        0
 40
1.125
309
GRIDFORMAT_END
 95
        4
302
GRIDFORMAT
  1
GRIDFORMAT_BEGIN
 90
        0
 91
        1
 62
     0
 92
       -2
340
14
 93
        0
 40
1.125
309
GRIDFORMAT_END
 95
        8
302
GRIDFORMAT
  1
GRIDFORMAT_BEGIN
 90
        0
 91
        1
 62
     0
 92
       -2
340
14
 93
        0
 40
1.125
309
GRIDFORMAT_END
 95
       16
302
GRIDFORMAT
  1
GRIDFORMAT_BEGIN
 90
        0
 91
        1
 62
     0
 92
       -2
340
14
 93
        0
 40
1.125
309
GRIDFORMAT_END
 95
       32
302
GRIDFORMAT
  1
GRIDFORMAT_BEGIN
 90
        0
 91
        1
 62
     0
 92
       -2
340
14
 93
        0
 40
1.125
309
GRIDFORMAT_END
309
TABLEFORMAT_END
  1
CELLSTYLE_BEGIN
 90
        2
 91
        1
300
_HEADER
309
CELLSTYLE_END
300
CELLSTYLE
  1
TABLEFORMAT_BEGIN
 90
        5
170
     1
 91
        0
 92
        0
 62
   257
 93
        1
300
CONTENTFORMAT
  1
CONTENTFORMAT_BEGIN
 90
        0
 91
        0
 92
      512
 93
        0
300

 40
0.0
140
1.0
 94
        2
 62
     0
340
11
144
4.5
309
CONTENTFORMAT_END
171
     1
301
MARGIN
  1
CELLMARGIN_BEGIN
 40
1.5
 40
1.5
 40
1.5
 40
1.5
 40
4.5
 40
4.5
309
CELLMARGIN_END
 94
        6
 95
        1
302
GRIDFORMAT
  1
GRIDFORMAT_BEGIN
 90
        0
 91
        1
 62
     0
 92
       -2
340
14
 93
        0
 40
1.125
309
GRIDFORMAT_END
 95
        2
302
GRIDFORMAT
  1
GRIDFORMAT_BEGIN
 90
        0
 91
        1
 62
     0
 92
       -2
340
14
 93
        0
 40
1.125
309
GRIDFORMAT_END
 95
        4
302
GRIDFORMAT
  1
GRIDFORMAT_BEGIN
 90
        0
 91
        1
 62
     0
 92
       -2
340
14
 93
        0
 40
1.125
309
GRIDFORMAT_END
 95
        8
302
GRIDFORMAT
  1
GRIDFORMAT_BEGIN
 90
        0
 91
        1
 62
     0
 92
       -2
340
14
 93
        0
 40
1.125
309
GRIDFORMAT_END
 95
       16
302
GRIDFORMAT
  1
GRIDFORMAT_BEGIN
 90
        0
 91
        1
 62
     0
 92
       -2
340
14
 93
        0
 40
1.125
309
GRIDFORMAT_END
 95
       32
302
GRIDFORMAT
  1
GRIDFORMAT_BEGIN
 90
        0
 91
        1
 62
     0
 92
       -2
340
14
 93
        0
 40
1.125
309
GRIDFORMAT_END
309
TABLEFORMAT_END
  1
CELLSTYLE_BEGIN
 90
        3
 91
        2
300
_DATA
309
CELLSTYLE_END
  0
ENDSEC
  0
EOF
